<svg id="Livello_1" data-name="Livello 1" xmlns="http://www.w3.org/2000/svg" viewBox="0 0 432.74 139.83"><defs><style>.cls-1{fill:#0d6838;}.cls-2{fill:#001d6f;}.cls-3{fill:#006f3e;}</style></defs><title>logo-garr</title><path class="cls-1" d="M66.92,134.66s-.09-.11-.56-.11h0c-.41,0-1,.07-1.7.07h0a8.34,8.34,0,0,1-1.46-.12h0a3.39,3.39,0,0,1-3-2.8h0c-.37-1.07.15-.89-1.41-2.47h0a1,1,0,0,0-.66-.34h0a1.31,1.31,0,0,0-.87.54h0a3.43,3.43,0,0,0-.43.63h0l-.32.64-.57-.42a4.52,4.52,0,0,1-1.24-1.35h0s0,0-.06-.07h0l-.25-.21h0c-.21-.16-.5-.35-.8-.57h0a4.38,4.38,0,0,1-1.62-1.7h0c-.13-.25-.1-.2-.37-.23h0c-.32,0-.8.17-1.34.19h0c-1.16-.09-1.89-1.13-2.52-2.33h0c0-.09-.3-.25-.83-.24h0a6.09,6.09,0,0,0-1.55.25h0l-.26-.59H45l-.31.35h0l0,0h0l-.12-.09h0l-.66-.45h0a8.8,8.8,0,0,1-1.61-1.34h0a1.71,1.71,0,0,1-.44-1.12h0a2.18,2.18,0,0,1,.12-.67h0l0-.1h0a2.34,2.34,0,0,1-1.33-1.69h0a1.19,1.19,0,0,1,.37-.85h0a1.89,1.89,0,0,1,1.4-.46h0c.49,0,1,.07,1.33.07h0a1,1,0,0,0,.45-.07h0c.33-.21.28-.2.29-.2h0a1.83,1.83,0,0,1,.48-.59h0a5,5,0,0,0,.68-.94h0a7.66,7.66,0,0,1,.76-1.13h0a.74.74,0,0,1,.55-.26h0a.79.79,0,0,1,.72.59h0c.07.18.11.36.16.56h0a3.82,3.82,0,0,0,.37,1h0a3.89,3.89,0,0,0,.23.35h0c.19-.31.68-1.17,1.28-2h0c.68-.85,1.41-1.78,2.55-1.84h0a1.62,1.62,0,0,1,1.31.72h0c1.05,1.45,2.84,3.55,3.57,3.89h0c.38-.57.92-1.66,2.21-1.73h0a2.34,2.34,0,0,1,1.32.47h0a3.39,3.39,0,0,0,1.89.56h0a4.76,4.76,0,0,0,3.45-1.68h0a3.14,3.14,0,0,1,2.33-1.1h0a4.58,4.58,0,0,1,2.44.89h0a1.51,1.51,0,0,1,.12-.25h0a.88.88,0,0,1,.74-.41h0a1.19,1.19,0,0,1,.43.09h0a.71.71,0,0,0,.27.06h0a1.46,1.46,0,0,0,1-.61h0a5.69,5.69,0,0,1,2.52-1.19h0l.39-.09.23.33a1.33,1.33,0,0,1,.22.75h0a2.5,2.5,0,0,1,0,.35h0c1.51-.06,3.14-2.46,3.08-3.66h0c0-.31-.08-.45-.16-.5h0a1.28,1.28,0,0,1-.52-1h0a2.24,2.24,0,0,1,1.37-1.74h0a5.37,5.37,0,0,1,2.41-.66h0a5.52,5.52,0,0,1-.26-1.78h0c0-.18,0-.36,0-.55h0c.11-1.86.28-3.09.28-3.85h0c-.06-.91-.06-.93-.69-1.31h0c-1.09-.7-1-2-1.09-3.31h0A13.44,13.44,0,0,0,80.88,92h0a.69.69,0,0,0-.06-.13h0a13.09,13.09,0,0,0-2.85.7h0L76.91,93l.25-1.11a3.25,3.25,0,0,0,.05-.54h0a1.43,1.43,0,0,0-.15-.72h0c-.11-.14-.17-.23-.57-.25h0a4.15,4.15,0,0,1-3.07-1.34h0a.78.78,0,0,1-.35-.64h0a1.15,1.15,0,0,1,.33-.73h0c.13-.16.28-.31.42-.48h0a1.77,1.77,0,0,0,.48-1.1h0c0-.49-.31-1.32-1.73-2.48h0A4.35,4.35,0,0,1,69.82,85h0a2.48,2.48,0,0,1-.4,0h0a1.06,1.06,0,0,1-.94-1.06h0a3.89,3.89,0,0,1,.49-1.5h0c.12-.23.22-.47.29-.64h0a1.17,1.17,0,0,0-.68.43h0a1.88,1.88,0,0,1-1.36.83h0a1.54,1.54,0,0,1-.36,0h0c-.59-.21-.71-.63-.9-1h0a13.39,13.39,0,0,1-.45-1.5h0a19.83,19.83,0,0,0-1-3.2h0c-.25-.55-.53-.76-.61-.75h0l-.35,0h0a1.31,1.31,0,0,0-1.2.59h0l0,.07h0L62,78l-.64-.82a6.66,6.66,0,0,0-.71-.74h0a2.33,2.33,0,0,0-1.25-.67h0a.48.48,0,0,0-.26.07h0a9.29,9.29,0,0,1-2.69,1.06h0l-.78.15.31-3.61,0,0h0a.48.48,0,0,0-.39-.15h0a2.68,2.68,0,0,0-1.38.57h0a2.23,2.23,0,0,1-1.19.47h0a1.1,1.1,0,0,1-1-.84h0a6.81,6.81,0,0,1-.2-1.14h0a3.05,3.05,0,0,0-.79-2h0a2,2,0,0,1-.86-1.51h0c0-.32.07-.51.06-.58h0c0-.05,0-.39-1.61-1.33h0c-1.76-.95-2.21-1.82-2.17-2.57h0c0-.12,0-.22,0-.3h0c0-.39,0-.71-1-1.72h0c-1.41-1.42-2.71-2-3.5-2h0a1,1,0,0,0-1,.59h0a1.71,1.71,0,0,1-.14.25h0a.66.66,0,0,1-.55.3h0a.63.63,0,0,1-.56-.34h0a.79.79,0,0,1-.08-.24h0a2.07,2.07,0,0,1,0-.31h0c0-.35,0-.86,0-1.44h0a6.45,6.45,0,0,0-.31-2.23h0c-.27-.6-.51-.86-1.16-.88h0a4.07,4.07,0,0,1-1.85-.32h0a1.24,1.24,0,0,1-.72-1.1h0a1.84,1.84,0,0,1,0-.2h0a2,2,0,0,1-.84-.18h0a1.11,1.11,0,0,1-.63-1h0a2.56,2.56,0,0,1,.52-1.35h0a4,4,0,0,0,.73-2.21h0a2,2,0,0,0-.95-1.89h0a1.33,1.33,0,0,1-.7-1.34h0c0-1.1.47-2.66.46-3.84h0c-.05-1-.18-1.37-.88-1.51h0a6.42,6.42,0,0,1-2.91-1h0A13.77,13.77,0,0,0,29.08,39h0a5.54,5.54,0,0,1-1.43-1.57h0a2.29,2.29,0,0,0-1.8-.83h0A21.63,21.63,0,0,1,21,35.41h0c-.49.38-1.61,1.25-2.76,2.24h0c-1.53,1.28-3.14,3-3.24,3.48h0c-.61,1.7-3.05,2.64-5.32,2.7h0A4.31,4.31,0,0,1,6.8,42.9h0l-.55-.48L6.83,42a7.09,7.09,0,0,0,.86-.82h0a2.78,2.78,0,0,0,.8-1.61h0A1.1,1.1,0,0,0,8,38.67H8a11.38,11.38,0,0,0-3-1.8h0a12,12,0,0,0-1.54-.56h0l-.33-.09-.79-2.88L1,32.24l2.3-1.74-.64-2.39-.21-1A3.26,3.26,0,0,1,.73,24.76h0c0-.82.62-1.54,1.73-2h0c1-.46,1.79-.78,2.32-1h0a2.33,2.33,0,0,0,.76-.47h0A2.33,2.33,0,0,0,5,20.41H5A6.7,6.7,0,0,0,3,19H3c-.64-.37-1.45-.72-1.51-1.73h0A2,2,0,0,1,2,16.17H2a4.06,4.06,0,0,1,3-2H5l1.92.47,1.72-.48,1.26.21a2.59,2.59,0,0,1,1.94-1h0a2.39,2.39,0,0,1,.44,0h0l.67.13-.22.65a1.94,1.94,0,0,0,0,.31h0a.39.39,0,0,0,0,.14h0a.42.42,0,0,0,.14,0h0l.22,0h0c1.44-.31,1.69-.48,1.74-1.39h0c0-.34,0-.68,0-1h0a2.19,2.19,0,0,1,.28-1.23h0a1.52,1.52,0,0,1,1.35-.61h0c.43,0,.82,0,1.12,0h0a1.42,1.42,0,0,0,.51-.06h0a.43.43,0,0,0,0-.13h0a1,1,0,0,1,.46-.89h0a1.46,1.46,0,0,1,.81-.21h0a6.09,6.09,0,0,1,1.71.35h0A4.71,4.71,0,0,1,21,9h0a1.26,1.26,0,0,1,.14-.61h0a.87.87,0,0,1,.76-.43h0c.87.09,1.41.73,2.18,1.46h0a14.85,14.85,0,0,1,1.84,2.32h0a22.1,22.1,0,0,0,1.26,1.87h0l4.19-4.66,4.6.25c.2-.12.58-.34,1-.63h0a4.73,4.73,0,0,0,1.36-1.28h0A4.65,4.65,0,0,1,41.85,5h0c.84,0,1.71.35,2.29.33h0a.7.7,0,0,0,.52-.15h0a7.22,7.22,0,0,0,.69-1.71h0c.31-.72.49-1.69,1.61-1.83h0a1.28,1.28,0,0,1,.66.19h0c1.18.78,1.75,1.72,2.18,1.62h0a1.08,1.08,0,0,0,.48-.14h0c.57-.21.42-1.09.93-2.1h0A1.29,1.29,0,0,1,52.36.59h0a2.82,2.82,0,0,1,.9.17h0A4.48,4.48,0,0,1,55.7,2.91h0c.46.8.74,1.11.86,1h0a5.13,5.13,0,0,1,3.12,1.87h0A11.9,11.9,0,0,0,61,6.7h0a5.53,5.53,0,0,0,2.44.83h0a1.27,1.27,0,0,0,.76-.21h0a4.17,4.17,0,0,0,1-1h0c.25-.29.38-.76,1.12-.84h0c.81.11,1,.61,1.74,1.52h0c.39.54.63.6.76.6h0c.19,0,.63-.3.94-.79h0a5.57,5.57,0,0,0,.51-.94h0l.29-.72.62.47a2.38,2.38,0,0,1,.94,1.79h0a3,3,0,0,1-1.73,2.44h0L70,10h0c.45,0,.94-.06,1.24-.06h0a1.32,1.32,0,0,1,.61.13h0a.82.82,0,0,1,.45.73h0c-.1.83-.66,1.28-1.92,2.44h0a2.78,2.78,0,0,0-.39.4h0a3.05,3.05,0,0,0,.65.06H71l.71-.06-.27,3a12.42,12.42,0,0,1,1.3.57h0c.85.48,1.9,1,2,2.21h0a1.41,1.41,0,0,1-.16.65h0a1.43,1.43,0,0,1-1.27.89h0a2.71,2.71,0,0,1-1.84-1.12h0l-1.59-.39L68,20.33l-.27-.54s-.15-.31-.37-.66h0a4,4,0,0,0-.44-.6h0a5.61,5.61,0,0,1-4.14,2.59h0a5.06,5.06,0,0,0-1.72.33h0a4.56,4.56,0,0,0-.72.33h0l-.62.37-.25-.67a2.11,2.11,0,0,0-.17-.3h0C59.19,21,59.09,21,59,21h0s-.31,0-.77.65h0a4.5,4.5,0,0,1-1.44,1.3h0a2.26,2.26,0,0,1,.85,1.7h0a2.87,2.87,0,0,1-.51,1.51h0c.14.1.38.22.64.37h0a2.16,2.16,0,0,1,1.34,1.75h0a1.11,1.11,0,0,1-.53.94h0a2.3,2.3,0,0,1-.86.3h0c-.58.1-1.22.1-1.69.16h0a1.94,1.94,0,0,0-.41.08h0a11.82,11.82,0,0,1,.1,1.79h0c0,1.26-.09,2.61-.11,2.93h0l.48,3,.11.13h0a4.27,4.27,0,0,0,.57.55h0a3.5,3.5,0,0,0,2.18.78h0a3.81,3.81,0,0,0,.69-.06h.11c.44,0,1.22.26,3,3.29h0a3.72,3.72,0,0,0,2.09,2h0a5.93,5.93,0,0,1,2.24.86h0l.28.23-.07.36a5.84,5.84,0,0,0-.09,1h0a2.44,2.44,0,0,0,.62,1.88h0A3,3,0,0,1,69,50.86h0c.07,1,0,2.18.12,4h0c.25,3.42,2.64,4.46,4,5.56h0c1.46,1.27,2.9,4.73,5.46,5.11h0a5.22,5.22,0,0,0,.83.06h0c2,0,5.12-.85,7.45-.85h0a3.37,3.37,0,0,1,2.83,1h0a1.78,1.78,0,0,1,.39,1.08h0C90,68,89,68.69,88.22,69.3h0a15.37,15.37,0,0,0-1.65,1.19h0a19.4,19.4,0,0,0,.82,1.82h0c.38.62.75,1,1.33,1h0c2.2.09,4.29,2.34,7.12,3h0a5.66,5.66,0,0,1,3.25,2.27h0a6.88,6.88,0,0,0,2.36,2.27h0a6.5,6.5,0,0,0,3.09.56h0a5.85,5.85,0,0,1,1.33.09h0a1.5,1.5,0,0,1,1.09.9h0l.08.2-.06.2a4.36,4.36,0,0,0-.13,1h0a1.47,1.47,0,0,0,.79,1.52h0l-.24.55.24-.55c1.37.62,3.27,1.64,3.34,3.61h0a3.16,3.16,0,0,1-.59,1.76h0c-1,1.55-.69,2.49-1.12,3.51h0a1.37,1.37,0,0,1-1,.73h0a4.05,4.05,0,0,1-.77.07h0a4.54,4.54,0,0,1-2.24-.56h0a2.54,2.54,0,0,1-1.32-2.26h0a3.68,3.68,0,0,1,.14-1h0a3.46,3.46,0,0,0,.13-.9h0a1.86,1.86,0,0,0-1.4-1.95h-.07a2.63,2.63,0,0,1-1.37.27h0a7.38,7.38,0,0,1-2.66-.5h0A2.37,2.37,0,0,1,97,86h0a2,2,0,0,1,.11-.65h0a1.6,1.6,0,0,0,.07-.29h0a6.57,6.57,0,0,0-3.07,1.65h0a17.89,17.89,0,0,0-2.35,3.52h0a12.69,12.69,0,0,1-.51,1.52h0c-.37.75-.67,1.7-1.74,1.86h0l0,.07h0a1.31,1.31,0,0,0-.12.6h0c0,.72.29,1.36,1.36,1.38h0a6.61,6.61,0,0,1,4.7,2.48h0l.2.26-.11.31a9.16,9.16,0,0,0-.49,2.32h0a1,1,0,0,0,.1.54h0a2,2,0,0,1,.47,1.44h0a4.8,4.8,0,0,1-.5,2.06h0a2,2,0,0,1-1.64,1.26h0c-1.06,0-3.42-.17-4.24-.24h0a6.85,6.85,0,0,0-.5.63h0a3,3,0,0,0-.64,1.49h0c0,.2,0,.42,0,.65h0A4.33,4.33,0,0,1,85.53,113h0a7.31,7.31,0,0,0-3.47,4.42h0a2.05,2.05,0,0,1-2.17,1.25h0c-.74,0-1.49-.14-2-.13h0a1.28,1.28,0,0,0-.32,0h0l-.22,0h0a2.3,2.3,0,0,1-1.64-1.15h0a4.71,4.71,0,0,1-.54-1h0a14.87,14.87,0,0,0-.94,1.38h0c-.69,1.15-1.68,3.36-2.12,4.24h0A3.77,3.77,0,0,1,71,123.17h0a1.08,1.08,0,0,0-.52.93h0a2,2,0,0,0,.06.44h0c.37,1.24.59,1,1,1.3h0a.67.67,0,0,1,.33.57h0a.73.73,0,0,1-.3.57h0s0,0,0,.06h0a1.22,1.22,0,0,0-.07.23h0a3,3,0,0,0,0,.47h0a1.91,1.91,0,0,1,.63,1.32h0a1.2,1.2,0,0,1-.42.92h0a1.45,1.45,0,0,1-1,.32h0a.66.66,0,0,0-.15.1h0a2.19,2.19,0,0,0-.42.5h0a2.88,2.88,0,0,0-.48,1.42h0a.8.8,0,0,0,.09.4h0a1.47,1.47,0,0,1,.21.75h0A1.9,1.9,0,0,1,68,135.22h0a1.26,1.26,0,0,1-1.06-.55ZM68,134a.92.92,0,0,0,.51-.2h0a.46.46,0,0,0,.21-.32h0a.26.26,0,0,0,0-.14h0a2,2,0,0,1-.25-1h0a4,4,0,0,1,.67-2.07h0a2.15,2.15,0,0,1,1.6-1.17h0c.12,0,.17,0,.17,0h0s-.06-.3-.42-.6h0l-.2-.17v-.25s0-.09,0-.21h0a3.42,3.42,0,0,1,.19-1.22h0l0,0h0a2.77,2.77,0,0,1-1.06-1.78h0a3.27,3.27,0,0,1-.08-.7h0a2.3,2.3,0,0,1,1-1.87h0c.46-.35.82-.6.86-.73h0c.42-.84,1.41-3.05,2.16-4.31h0a29.86,29.86,0,0,0,2.23-3.53h0l-.13,0h0a2.93,2.93,0,0,0-1.06.57h0a2.6,2.6,0,0,1-1.88,1h0a1.88,1.88,0,0,1-.49-.06h0a.9.9,0,0,1-.69.8h-.12a1.28,1.28,0,0,1-.68-.27h0c-.17-.11-.37-.25-.59-.37h0a3,3,0,0,0-1.44-.48h0a1.93,1.93,0,0,0-1.45.72h0a5.94,5.94,0,0,1-4.32,2.06h0a4.57,4.57,0,0,1-2.57-.77h0a1.17,1.17,0,0,0-.65-.26h0c-.38-.08-.9.68-1.36,1.4h0a.93.93,0,0,1-.75.37h0c-.92-.09-1.52-.8-2.36-1.64h0A33.14,33.14,0,0,1,52.65,114h0c-.18-.23-.26-.23-.34-.24h0c-.23-.06-1,.55-1.59,1.36h0c-.6.8-1.08,1.66-1.29,2h0a1.17,1.17,0,0,1-.94.61h0c-.78-.1-.92-.59-1.26-1h0a4.15,4.15,0,0,1-.42-1h0l-.11.18h0a5.39,5.39,0,0,1-.92,1.23h0c-.2.19-.11.1-.22.27h0a1.77,1.77,0,0,1-.71.64h0a2.05,2.05,0,0,1-1.07.24h0c-.48,0-1-.07-1.33-.07h0a.89.89,0,0,0-.55.1h0s0,0,0,.06h0a1.34,1.34,0,0,0,.2.23h0a4.88,4.88,0,0,0,.68.49h0a1,1,0,0,1,.46.8h0c0,.53-.21.72-.19.89h0a.51.51,0,0,0,.16.35h0a15.49,15.49,0,0,0,2.17,1.69h0a7,7,0,0,1,1.55-.2h0a2,2,0,0,1,1.91.9h0c.48,1.07,1.32,1.72,1.45,1.66h0c.16,0,.73-.18,1.34-.19h0a1.52,1.52,0,0,1,1.49,1h0a3.49,3.49,0,0,0,1.2,1.17h0a5,5,0,0,1,1.49,1.28h0a2.17,2.17,0,0,0,.38.49h0a2.66,2.66,0,0,1,2-1.19h0a2.16,2.16,0,0,1,1.49.67h0a4.44,4.44,0,0,1,1.71,2.94h0c.37.92.26,1.66,2,2h0a7.12,7.12,0,0,0,1.25.1h0c.62,0,1.18-.06,1.7-.07h0a1.73,1.73,0,0,1,1.57.65H68Zm11.89-16.53c.69,0,.93-.12,1-.44h0a8.55,8.55,0,0,1,4-5.07h0c1.91-1.19,1.92-2,2-3.06h0c0-.21,0-.43,0-.65h0a5.62,5.62,0,0,1,1.68-3.17h0l.19-.2.28,0s3.25.26,4.44.25h0c.06,0,.34-.14.57-.6h0a3.6,3.6,0,0,0,.37-1.52h0a1.07,1.07,0,0,0-.12-.59h0a1.91,1.91,0,0,1-.45-1.39h0a8.8,8.8,0,0,1,.45-2.39h0a6.48,6.48,0,0,0-.87-.78h0a4.56,4.56,0,0,0-2.69-1h0a2.46,2.46,0,0,1-2-.87h0a2.73,2.73,0,0,1-.58-1.71h0c0-.78.25-1.73,1.3-1.86h0l0,0h0a.93.93,0,0,0,.2-.21h0a4.48,4.48,0,0,0,.48-.9h0a11.3,11.3,0,0,0,.47-1.41h0l0-.07,0-.06a19.2,19.2,0,0,1,2.6-3.89h0a7.26,7.26,0,0,1,3.92-2h0a1.25,1.25,0,0,1,.82.27h0a1.11,1.11,0,0,1,.38.88h0a2.39,2.39,0,0,1-.13.72h0a.82.82,0,0,0-.05.28h0c0,.3.28.65,1,.94h0a6.17,6.17,0,0,0,2.2.41h0a2.58,2.58,0,0,0,.69-.07h0a1.29,1.29,0,0,1,.72-.2h0a3,3,0,0,1,2.6,3.15h0a4.67,4.67,0,0,1-.17,1.22h0a2.54,2.54,0,0,0-.1.66h0a1.33,1.33,0,0,0,.73,1.23h0a3.39,3.39,0,0,0,1.63.4h0a2.73,2.73,0,0,0,.53,0h0c.19-.06.12,0,.17-.09h0a2.51,2.51,0,0,0,.13-.65h0a6.56,6.56,0,0,1,1.06-3h0a2,2,0,0,0,.39-1.1h0c.07-1-1.31-2-2.62-2.51h0a2.67,2.67,0,0,1-1.52-2.62h0a5.26,5.26,0,0,1,.12-1.07h0l-.18-.07h0a5.12,5.12,0,0,0-1-.06h0a7.61,7.61,0,0,1-3.63-.69h0a8,8,0,0,1-2.76-2.6h0a4.43,4.43,0,0,0-2.6-1.84h0c-3.15-.83-5.54-3.06-6.83-3h0a2.75,2.75,0,0,1-2.36-1.55h0c-.45-.77-.71-1.62-.93-2h0a.93.93,0,0,1-.1-.41h0a1.63,1.63,0,0,1,.79-1.19h0c.37-.29.82-.57,1.25-.87h0c.9-.57,1.59-1.29,1.51-1.57h0a.59.59,0,0,0-.14-.36h0c-.23-.33-.87-.56-1.87-.55h0c-2.07,0-5.15.85-7.45.86h0a6.24,6.24,0,0,1-1-.08h0c-3.42-.62-5-4.65-6-5.35h0c-1.1-.9-4.2-2.35-4.47-6.42h0c-.12-1.9-.06-3.18-.12-4h0c-.08-.86-.18-1.14-.66-1.54h0a3.55,3.55,0,0,1-1.07-2.82h0a7.18,7.18,0,0,1,.05-.84h0a13.18,13.18,0,0,0-1.59-.47h0a4.94,4.94,0,0,1-2.75-2.52h0a8.41,8.41,0,0,0-2-2.67h0a5,5,0,0,1-.74.06h0A4.94,4.94,0,0,1,55.06,38h0L55,37.94l-.54-3.44v-.07s.11-1.54.11-2.91h0a10,10,0,0,0-.1-1.66h0a1.1,1.1,0,0,1,0-.23h0a1.11,1.11,0,0,1,.84-1h0a5,5,0,0,1,1.15-.18h0A5.83,5.83,0,0,0,58,28.2h0c0-.25-.77-.68-1.49-1.1h0a1.13,1.13,0,0,1-.58-.92h0a.93.93,0,0,1,.17-.53h0a2,2,0,0,0,.43-1h0c0-.24-.08-.5-.56-.9h0l-.42-.35h0a.8.8,0,0,1-.31-.6h0a.68.68,0,0,1,.31-.56h0a1,1,0,0,1,.24-.11h0c.12,0,.24-.09.39-.16h0a3.23,3.23,0,0,0,1.18-1h0A2.29,2.29,0,0,1,59,19.78h0a1.65,1.65,0,0,1,1.25.7h0a6.43,6.43,0,0,1,2.49-.55h0c1.11.06,2.86-1.38,3.21-2.17h0a1,1,0,0,1,.84-.57h0c.85.11,1.07.69,1.44,1.14h0l.25.41h0l1.18-.59,2.41.59.13.17a4.58,4.58,0,0,0,.41.44h0a1.27,1.27,0,0,0,.62.37h0s0,0,.18-.22h0a.26.26,0,0,0,0-.11h0c.07-.13-.52-.77-1.34-1.14h0a11.5,11.5,0,0,0-1.57-.65h0l-.46-.15.23-2.56a3.35,3.35,0,0,1-.71-.11h0a1.12,1.12,0,0,1-.93-1h0a2.06,2.06,0,0,1,.89-1.42h0a12.68,12.68,0,0,0,1.21-1.17h0c-.28,0-.64,0-1,0h0a3.16,3.16,0,0,1-.81-.08h0a.88.88,0,0,1-.72-.82h0c.11-.77.56-.95,1.36-1.52h0c1-.67,1.17-1.15,1.17-1.43h0a.71.71,0,0,0,0-.15h0l-.15.23h0a2.54,2.54,0,0,1-1.94,1.31h0A2.2,2.2,0,0,1,67,7.65h0a7.2,7.2,0,0,0-.72-.92h0L66.13,7h0A5.38,5.38,0,0,1,64.88,8.3h0a2.48,2.48,0,0,1-1.46.43h0c-2.16,0-4.43-1.94-4.49-2h0l0,0,0,0A8.13,8.13,0,0,0,58,5.9h0a2.78,2.78,0,0,0-1.46-.74h0c-1.12-.06-1.46-1-1.88-1.62h0a3.31,3.31,0,0,0-1.8-1.64h0a1.78,1.78,0,0,0-.52-.11h0c-.16,0-.07,0-.12,0h0a1.89,1.89,0,0,0-.17.55h0a2.57,2.57,0,0,1-1.23,2h0a2.26,2.26,0,0,1-1,.26h0c-1.47-.1-1.95-1.37-2.8-1.78h0l0,0h0a.76.76,0,0,0-.12.15h0a4.6,4.6,0,0,0-.38.87h0a6.46,6.46,0,0,1-1,2.15h0a1.89,1.89,0,0,1-1.37.51h0c-.9,0-1.8-.35-2.29-.33h0a3.62,3.62,0,0,0-2.46,1.66h0c-.73,1.33-2.94,2.44-3,2.5h0l-.15.08-4.38-.24-4.76,5.3-.44-.55a25.82,25.82,0,0,1-1.79-2.56h0a13.59,13.59,0,0,0-2.65-3h0a5.61,5.61,0,0,1,.06.65h0a1.07,1.07,0,0,1-.1.5h0a.77.77,0,0,1-.68.42h0a1,1,0,0,1-.3-.05h0a7.58,7.58,0,0,0-1.87-.47h-.07a1.26,1.26,0,0,1-.62,1.06h0a2.24,2.24,0,0,1-1.11.22h0l-1.12,0h0c-.35,0-.33.07-.35.07h0a1.25,1.25,0,0,0-.08.56h0c0,.27,0,.62,0,1h0c.05,1.57-1.21,2.4-2.75,2.58h0a2.51,2.51,0,0,1-.41,0h0a1.33,1.33,0,0,1-1.09-.48h0a1.38,1.38,0,0,1-.27-.76h0A1.49,1.49,0,0,0,11,15h0a1.7,1.7,0,0,0-.33.38h0l-.21.35-1.76-.29L7,15.9l-2.06-.5H4.86a1.83,1.83,0,0,0-.43.15h0a3.92,3.92,0,0,0-1.48,1.32h0a.88.88,0,0,0-.2.44h0s0,.07.14.2h0a4.33,4.33,0,0,0,.74.47h0a7.77,7.77,0,0,1,2.29,1.64h0a2.68,2.68,0,0,1,.82,1.6h0c0,.76-.61,1.12-1.19,1.42h0c-.62.32-1.46.65-2.58,1.17H3c-.94.45-1,.78-1,.95h0a1.58,1.58,0,0,0,.61,1h0a4.72,4.72,0,0,0,.71.52h0l.23.13.3,1.47L4.64,31,3,32.24l.51.39.72,2.62a13.82,13.82,0,0,1,4.63,2.51h0a2.32,2.32,0,0,1,.86,1.77h0a4.4,4.4,0,0,1-1.5,2.83h0a3.86,3.86,0,0,0,1.49.26h0c1.88.06,4.09-1.16,4.17-1.84h0c.4-1.22,2-2.66,3.61-4.06h0c1.57-1.35,3.08-2.48,3.08-2.49h0l.27-.2.31.13A21.35,21.35,0,0,0,26,35.39h0a3.53,3.53,0,0,1,2.61,1.27h0c.47.59.68,1,1.12,1.3h0a12.21,12.21,0,0,1,1.38,1.12h0a5.3,5.3,0,0,0,2.4.79h0a2.38,2.38,0,0,1,1.88,2.69h0c0,1.42-.47,3.05-.46,3.84h0a1.21,1.21,0,0,0,0,.26h0a3.15,3.15,0,0,1,1.62,3h0a5.24,5.24,0,0,1-.93,2.87h0a1.92,1.92,0,0,0-.32.64h0a1.2,1.2,0,0,0,.35,0h0a4.07,4.07,0,0,0,.81-.1h0l2.08-.51L37,54.1a2.17,2.17,0,0,0-.16.2h0a.83.83,0,0,0-.13.28h0l.07.05h0a3.1,3.1,0,0,0,1.29.19h0a2.37,2.37,0,0,1,2.27,1.64h0a7.56,7.56,0,0,1,.39,2.68h0c0,.09,0,.17,0,.26h0a2.36,2.36,0,0,1,1.14-.26h0c1.31,0,2.8.8,4.35,2.34h0A3.43,3.43,0,0,1,47.56,64h0c0,.12,0,.22,0,.3h0c0,.36-.14.49,1.56,1.53h0c1.66.93,2.2,1.59,2.21,2.37h0c0,.32-.07.5-.06.58h0c0,.09,0,.18.44.6h0a3.7,3.7,0,0,1,1.13,2.3h0c.09.59.15,1.15.21,1.38h0a2,2,0,0,0,.42-.23h0a3.78,3.78,0,0,1,2-.77h0a1.67,1.67,0,0,1,1.6,1.08h0l0,.12L57,75.54a7.91,7.91,0,0,0,1.52-.69h0a1.66,1.66,0,0,1,.88-.24h0a3.81,3.81,0,0,1,2.4,1.3h0a2.6,2.6,0,0,1,1.83-.69h0a3.64,3.64,0,0,1,.52,0h0a2.11,2.11,0,0,1,1.46,1.3h0a11.43,11.43,0,0,1,.74,2.09h0a19.17,19.17,0,0,0,.92,3.12h0s.15-.07.48-.45h0a2.33,2.33,0,0,1,1.81-.83h0a1.07,1.07,0,0,1,.73.24h0a.92.92,0,0,1,.3.7h0a3.81,3.81,0,0,1-.49,1.44h0a5,5,0,0,0-.36.87h.13a2.72,2.72,0,0,0,1.5-.64h0a5,5,0,0,0,.73-.67h0l.37-.42.45.34c1.89,1.43,2.61,2.64,2.62,3.77h0a3.31,3.31,0,0,1-1.06,2.22h0a2.41,2.41,0,0,0,2,.87h0a1.78,1.78,0,0,1,1.59.82h0a2.45,2.45,0,0,1,.33,1.17h0a15.63,15.63,0,0,1,2.24-.48h.18a1.29,1.29,0,0,1,1.18,1h0a5.76,5.76,0,0,1,.25,1.55h0c.06,1.13,0,2.47.16,3.38h0a1.48,1.48,0,0,0,.33.92h0a2.32,2.32,0,0,1,1.36,2.38h0c0,.91-.17,2.1-.28,3.93h0c0,.17,0,.33,0,.48h0a2.86,2.86,0,0,0,.62,2.12h0l-.61,1-.25-.07h0a2.51,2.51,0,0,0-.61-.07h0a3.86,3.86,0,0,0-2.53,1h0a.52.52,0,0,0-.14.23h0l.07.07h0A1.79,1.79,0,0,1,81,110h0c-.06,1.89-1.73,4.53-4.16,4.86h0c-.6.12-.54.18-.6.55h0a2.91,2.91,0,0,0,1.16,2h0a2.52,2.52,0,0,1,.54-.05h0c.64,0,1.36.14,2,.14ZM70.71,115h0Zm4.81-1.82.49-.34-.49.34ZM8.84,106.89a4.17,4.17,0,0,1-1.91-.63h0a3.44,3.44,0,0,0-1.12-.49h0a1.29,1.29,0,0,1-.39.07h0A1.69,1.69,0,0,1,4,104.57H4l-.06-.18H3.78c-.67,0-1.06-.56-1.37-1.37h0a1.79,1.79,0,0,1-.12-.63h0a1.66,1.66,0,0,1,1.18-1.48h0a12.05,12.05,0,0,1,1.6-.46h0a2.49,2.49,0,0,0,.43-.14h0a1.12,1.12,0,0,0,0-.21h0c0-.4-.14-1-.14-1.71h0a2.33,2.33,0,0,1,.22-1.07h0a1.32,1.32,0,0,1,1.23-.74H6.9a6.4,6.4,0,0,1,1.2-3.31h0A5.57,5.57,0,0,1,6.66,93h0a.83.83,0,0,1-.5-.75h0c.1-.84.69-1.27,1.22-1.88h0c.44-.43.86-.81,1-.94h0a6.55,6.55,0,0,0,.37-.61h0a4.19,4.19,0,0,0,.46-1.23h0l-.25,0H9a5.7,5.7,0,0,0-1.36.23h0l-1.49.46L6.92,87a9.89,9.89,0,0,1,1.39-1.64h0a1.56,1.56,0,0,0,.53-.92h0c0-.08,0-.06,0-.07h0a.53.53,0,0,0-.31-.06h0A1.93,1.93,0,0,1,7,83.67H7a2,2,0,0,1-.47-1.33h0a2.62,2.62,0,0,1,.08-.65h0a1.89,1.89,0,0,1,1.28-1.16h0a1.46,1.46,0,0,1-.32-.88h0a1.54,1.54,0,0,1,1-1.32h0l0,0h0a5.06,5.06,0,0,0,.18-.87h0a1.31,1.31,0,0,1,1-1h0a3.58,3.58,0,0,1,1.11-.15h0a5.18,5.18,0,0,1,.56,0h0l1.76.21-1.52.9c-.87.53-.9.82-.9,1h0c0,.25.2.39.29,1h0a.42.42,0,0,1,0,.12h0l.08,0h0a6.34,6.34,0,0,0,1.43.21h0c.38-.05.18,0,.33-.15h0a1.32,1.32,0,0,1,1.19-.71h0c.07,0,.33-.14.53-.45h0a3.23,3.23,0,0,0,.32-.59h0l.06-.16.14-.1a7.67,7.67,0,0,1,2.75-1.29h0c.16,0,.09,0,.12-.06h0a1.48,1.48,0,0,0,.07-.46h0a1.93,1.93,0,0,1,.82-1.8h0a1.53,1.53,0,0,1,.75-.22h0a1.17,1.17,0,0,1,1.07.76h0a2.06,2.06,0,0,1,.13.44h0a1.28,1.28,0,0,0,.74.15h0A1.64,1.64,0,0,1,23,76.31h0a6.07,6.07,0,0,1,.29,1.94h0a3.93,3.93,0,0,1-.22,1.45h0a.23.23,0,0,0,0,.09h0s0,.09.21.29h0c.19.2.5.45.81.81h0l-.45.39-.46.39c-.41-.57-1.2-.83-1.31-1.89h0a1.43,1.43,0,0,1,.13-.58h0a3.1,3.1,0,0,0,.11-1h0a5,5,0,0,0-.22-1.54h0c-.16-.45-.31-.48-.32-.48h0c-1.38.05-1.9-.79-1.9-1h0v-.07s0-.05,0-.13h0a.5.5,0,0,0,0-.1h0l-.13.06h0c-.11.06-.14.12-.18.46h0a3.65,3.65,0,0,1-.21,1.27h0a1.32,1.32,0,0,1-1,.72h0a5,5,0,0,0-1.5.6h0c-.27.15-.48.29-.61.38h0a4.52,4.52,0,0,1-.37.66h0a1.94,1.94,0,0,1-1.52,1H14l-.1.14h0a1.46,1.46,0,0,1-1.35.71h0a7.22,7.22,0,0,1-2.45-.49h0c-.17-.15-.47-.07-.61-.75h0a.77.77,0,0,1,.25-.52h0l-.08-.22h0l-.05.13h0l-.12.23-.24.08A1.62,1.62,0,0,0,9,79.5H9c-.16.1-.17.14-.16.15h0s0,0,.1.18h0a1.3,1.3,0,0,1,.31.79h0a1,1,0,0,1-.44.8h0a3.18,3.18,0,0,1-.53.28h0c-.33.14-.44.26-.43.29h0a1.46,1.46,0,0,0,0,.35h0c.06.49.11.7.77.74h0a1.65,1.65,0,0,1,1.09.34h0a1.27,1.27,0,0,1,.44,1h0a2.65,2.65,0,0,1-.88,1.76h0l-.23.24H9a1.93,1.93,0,0,1,.88.18h0a1.05,1.05,0,0,1,.58.95h0s0,.07,0,.13h0a6.31,6.31,0,0,1-1.1,2.57h0l0,.06-.06,0s-.45.37-.91.83h0a7.59,7.59,0,0,0-.78.86h0A8.15,8.15,0,0,1,9,92.24H9A.88.88,0,0,1,9.6,93h0a1.23,1.23,0,0,1-.43.85h0A5.23,5.23,0,0,0,8.09,96.8h0a.79.79,0,0,0,0,.13h0a.74.74,0,0,1,.08.32h0a.66.66,0,0,1-.31.55h0a.67.67,0,0,1-.36.09h0c-.35,0-.51-.1-.68-.1h0c-.15,0-.08,0-.15.08h0a1.23,1.23,0,0,0-.09.53h0c0,.48.14,1.11.14,1.71h0a1.82,1.82,0,0,1-.16.8h0c-.46.67-1,.6-1.51.79H5l-.42.1h0l.25,1.56A4.66,4.66,0,0,0,5,104H5a1.52,1.52,0,0,0,.36.65h0a1.28,1.28,0,0,1,.41-.06h0a3.9,3.9,0,0,1,1.69.63h0a3.18,3.18,0,0,0,1.34.49h0a.84.84,0,0,0,.46-.13h0c1.15-.69,1.59-2.34,1.94-3.2h0a3.94,3.94,0,0,1,3.07-2h0a2.49,2.49,0,0,1,2.27,1.87h0a4,4,0,0,0,.33-.56h0l0,0,0,0a9.06,9.06,0,0,0,.48-.78h0a3.25,3.25,0,0,0,.44-1.2h0s0,0,0,0h0a1.1,1.1,0,0,1-.09-.43h0c.07-.79.57-1.08.9-1.49h0a2.08,2.08,0,0,0,.67-1.18h0a15.14,15.14,0,0,1,.29-2.22h0c.18-.63.31-1.31,1.1-1.57h0l.09-.09h0a2.67,2.67,0,0,0,.3-.51h0a3.49,3.49,0,0,0,.35-1.31h0a.79.79,0,0,0,0-.22h0c-.6-.21-1.29-.55-1.33-1.4h0A2.05,2.05,0,0,1,21,87.7h0c1.06-.87,2.82-2.13,2.7-2.9h0a.85.85,0,0,0-.11-.41h0a3.14,3.14,0,0,1-.43-1.52h0a10.44,10.44,0,0,1,.14-1h0c0-.06,0,0-.08-.17h0l.46-.39.46-.39a1.43,1.43,0,0,1,.37.95h0c0,.49-.15.73-.14,1h0a2,2,0,0,0,.29.95h0a2.08,2.08,0,0,1,.25,1h0c-.11,1.92-2.28,3-3.1,3.79h0a1.27,1.27,0,0,0-.43.54h0l0,0h0a1.65,1.65,0,0,0,.5.24h0a1.31,1.31,0,0,1,.81,1.35h0a4.59,4.59,0,0,1-.46,1.82h0c-.3.53-.46,1-1.13,1.23h0L21,93.9h0a2.54,2.54,0,0,0-.22.63h0a13.85,13.85,0,0,0-.27,2h0c-.16,1.49-1.5,2.27-1.55,2.58h0a1.37,1.37,0,0,1,.08.48h0a5.78,5.78,0,0,1-1.09,2.6h0c-.47.91-.85,1.37-1.52,1.42h0a1,1,0,0,1-.86-.55h0l0,0V103c-.42-1.26-.84-1.4-1.25-1.42h0c-.72-.08-2,1.07-2,1.27h0c-.3.65-.72,2.69-2.41,3.75h0a2.05,2.05,0,0,1-1.07.3h0Zm-5.17-4.72c-.18.13-.17.15-.18.24h0a.62.62,0,0,0,0,.2h0a2.43,2.43,0,0,0,.25.51h0l.76-1.29a3.23,3.23,0,0,0-.87.34Z" transform="translate(-0.73 -0.59)"/><path class="cls-2" d="M177,103.29a5.85,5.85,0,0,0-2.66-2.66c-1.2-.62-3.32-.92-6.35-.92V97.6h29.14v2.1h-1.4q-4.34,0-5.94,2.89c-.74,1.36-1.1,4.07-1.1,8.1v23a56,56,0,0,1-12.61,5.06,55.17,55.17,0,0,1-13.82,1.62q-21.81,0-33.13-14a37.39,37.39,0,0,1-8.5-24.21,42.46,42.46,0,0,1,20.32-35.7q8.27-4.83,19.53-4.82a38.73,38.73,0,0,1,7.47.66,68.86,68.86,0,0,1,9.52,2.94,15.3,15.3,0,0,0,4.16,1.16,2.21,2.21,0,0,0,1.8-1,7.4,7.4,0,0,0,.92-3.8h2l2,23.76h-2q-2.93-8.89-7.6-13.38-6.71-6.5-17.25-6.5-14.39,0-21.88,11.38-6.28,9.63-6.28,22.88a45.73,45.73,0,0,0,4.17,19.66q4.15,8.88,10.89,13a26.27,26.27,0,0,0,13.86,4.14,30.85,30.85,0,0,0,8.06-1.06,31.93,31.93,0,0,0,7.49-3.1V110.71c0-3.78-.29-6.24-.86-7.42Zm72.87,35.4v-2q4.5-.23,6.08-1.5a3.91,3.91,0,0,0,1.58-3.12q0-2.44-2.22-7.72l-4.56-10.81H221.59l-5.1,11.87a18.82,18.82,0,0,0-1.88,6.56,3.78,3.78,0,0,0,1.64,3q1.62,1.31,7.07,1.7v2H199.6v-2q4.73-.84,6.1-2.17,2.84-2.67,6.29-10.82l26.47-62h1.94l26.2,62.62c2.11,5,4,8.31,5.74,9.8a11.71,11.71,0,0,0,7.18,2.54v2ZM236.41,78.95l-13.1,30.42h25.88L236.41,78.95Zm101.14,59.74-25.48-35.2c-1.89.08-3.43.12-4.62.12-.47,0-1,0-1.54,0s-1.13,0-1.72-.08v21.88q0,7.11,1.55,8.82c1.4,1.64,3.52,2.45,6.33,2.45H315v2H282.77v-2h2.82c3.19,0,5.45-1,6.82-3.12.78-1.14,1.16-3.87,1.16-8.16V76.73q0-7.11-1.54-8.83-2.16-2.42-6.44-2.43h-2.82V63.41h27.41q12,0,17.69,1.74a20.16,20.16,0,0,1,9.65,6.44,16.78,16.78,0,0,1,4,11.19,17.55,17.55,0,0,1-4.53,12q-4.52,5.11-14,7.22l15.54,21.6q5.32,7.44,9.16,9.88a22.92,22.92,0,0,0,10,3.12v2Zm-14-43.3A14.91,14.91,0,0,0,329,83.5,15.48,15.48,0,0,0,324.58,72q-4.39-4.41-11.68-4.41a49.38,49.38,0,0,0-8.71,1V100l1.82,0,1.28,0q10.78,0,16.24-4.66Zm89.85,43.3-25.48-35.2c-1.89.08-3.42.12-4.62.12-.48,0-1,0-1.55,0s-1.13,0-1.72-.08v21.88c0,4.74.51,7.68,1.56,8.82,1.4,1.64,3.51,2.45,6.32,2.45h2.94v2H358.59v-2h2.82q4.78,0,6.82-3.12c.79-1.14,1.17-3.87,1.17-8.16V76.73q0-7.11-1.56-8.83-2.16-2.42-6.44-2.43h-2.82V63.41H386q12,0,17.68,1.74a20.21,20.21,0,0,1,9.67,6.44,16.82,16.82,0,0,1,4,11.19,17.55,17.55,0,0,1-4.53,12q-4.51,5.11-14,7.22l15.54,21.6q5.32,7.44,9.16,9.88a22.88,22.88,0,0,0,10,3.12v2Zm-14-43.3a15,15,0,0,0,5.46-11.88A15.51,15.51,0,0,0,400.42,72c-3-2.94-6.84-4.41-11.68-4.41a49.2,49.2,0,0,0-8.72,1V100l1.82,0,1.28,0q10.78,0,16.24-4.66Z" transform="translate(-0.73 -0.59)"/><path class="cls-3" d="M129.43,36.48l-.13.71-.74,4-.13.57c-.08.56-.59,1.14-1.52,1.74a30.18,30.18,0,0,1-16.46,4.73q-10.41,0-16.79-6.14T87.29,25.88A22.66,22.66,0,0,1,93.88,9.21a22.41,22.41,0,0,1,16.56-6.65A26.24,26.24,0,0,1,123,5.62l1.3.67.51.23.55.19a.88.88,0,0,0,.49-.26,2.38,2.38,0,0,1,1-.51c.35,0,.57.41.67,1.22l1,7.72.09.81-.09.31a.58.58,0,0,1-.48.33c-.27,0-.65-.43-1.17-1.35q-6-10.53-16.4-10.52-8.27,0-13,5T92.69,23.29q0,10.06,5.29,16.43A16.88,16.88,0,0,0,111.6,46.1a19.57,19.57,0,0,0,9.54-2.58,14.87,14.87,0,0,0,6.51-6.27q.84-1.71,1.29-1.74c.35,0,.52.19.52.63l0,.35Zm29.08,7.72a14.36,14.36,0,0,1-10.39,4A13.85,13.85,0,0,1,138,44.32a13.23,13.23,0,0,1-4-9.92,13.38,13.38,0,0,1,4.21-10,14.09,14.09,0,0,1,10.18-4.09,13.78,13.78,0,0,1,10,4.07,13.05,13.05,0,0,1,4.17,9.68,13.47,13.47,0,0,1-4.1,10.09Zm-3.39-18.56a8.9,8.9,0,0,0-7.5-4,8,8,0,0,0-6.5,3,11.77,11.77,0,0,0-2.48,7.8,16.7,16.7,0,0,0,3.08,10.28,9.27,9.27,0,0,0,7.67,4.14,7.59,7.59,0,0,0,6.31-2.93A12.54,12.54,0,0,0,158,36a17.17,17.17,0,0,0-2.91-10.32Zm44.4,22c-.24,0-.66,0-1.27-.1a32.37,32.37,0,0,0-3.93-.15l-3.2.09H189.9l-.93.06-.45-.09a.51.51,0,0,1-.22-.49c0-.34.2-.55.58-.63l1-.27c.87-.21,1.29-1,1.29-2.31V32.64q0-4.46-2.06-6.89a7.38,7.38,0,0,0-5.92-2.42,7.76,7.76,0,0,0-4.78,1.57,4.48,4.48,0,0,0-2.08,3.6V40.77l0,1,0,1.62c.12,1.81,1.6,2.8,4.5,3,.71.07,1.07.3,1.07.7s-.26.59-.74.59a10.41,10.41,0,0,1-1.65-.19c-.42,0-1.43-.07-3-.07-3.42,0-5.47,0-6.14.15s-1.1.1-1.3.1c-.41,0-.6-.17-.57-.52s.22-.49.6-.63A4.42,4.42,0,0,0,171.3,45a5,5,0,0,0,.57-2.7V27.81a6,6,0,0,0-.56-3.09,2.33,2.33,0,0,0-2.07-.82l-1.38,0a1.09,1.09,0,0,1-.52-.13.47.47,0,0,1-.29-.46q0-.47.84-.63a16.47,16.47,0,0,0,4.17-1.33l1.72-.83,1.26-.63a1.71,1.71,0,0,1,.78-.24c.38,0,.56.3.51.93,0,.35,0,.75,0,1.22v3.64c2.88-3.42,5.88-5.11,9-5.11a9.53,9.53,0,0,1,8.18,4.22q2.07,2.89,2.07,8.82v7.7l0,1,.11,1.54a2.87,2.87,0,0,0,2.71,2.49l1.36.2c.58.08.88.29.91.63s-.34.69-1.06.69Zm19.62-19.95q-.4,0-.73-.84c-1.19-3.25-3.4-4.89-6.66-4.89a4.64,4.64,0,0,0-3.19,1.1,3.74,3.74,0,0,0,.09,5.65,22.34,22.34,0,0,0,5.42,2.67,14.89,14.89,0,0,1,5.61,3.33,6.79,6.79,0,0,1,1.57,4.71,8.27,8.27,0,0,1-2.7,6.21,9,9,0,0,1-6.46,2.59,13.63,13.63,0,0,1-5.82-1.51,3.65,3.65,0,0,0-.94-.36l-.85-.09a.8.8,0,0,1-.8-.8l0-1.37-.09-4.1.07-1c.09-.57.33-.87.72-.9s.66.29.8,1a10.44,10.44,0,0,0,2.63,5.53,6.37,6.37,0,0,0,4.71,2,5.43,5.43,0,0,0,3.86-1.39,4.61,4.61,0,0,0,1.51-3.54q0-3.3-3.65-4.91l-2.85-1.27A16.14,16.14,0,0,1,205.85,32a6.29,6.29,0,0,1-1.6-4.35,6.57,6.57,0,0,1,2.49-5.21,9.16,9.16,0,0,1,6.15-2.12,13,13,0,0,1,4.4.66l1.42.48c.58.21.87.53.87,1V23a5.45,5.45,0,0,0,.07.9l.13,1.25a7.91,7.91,0,0,1,.09,1.22c0,.84-.23,1.27-.72,1.29ZM250.74,44.2a14.31,14.31,0,0,1-10.38,4,13.86,13.86,0,0,1-10.1-3.87,13.27,13.27,0,0,1-4-9.92,13.38,13.38,0,0,1,4.21-10,14.07,14.07,0,0,1,10.18-4.09,13.77,13.77,0,0,1,10,4.07,13,13,0,0,1,4.17,9.68,13.44,13.44,0,0,1-4.12,10.09Zm-3.38-18.56a8.9,8.9,0,0,0-7.5-4,8,8,0,0,0-6.5,3,11.77,11.77,0,0,0-2.47,7.8A16.69,16.69,0,0,0,234,42.7a9.27,9.27,0,0,0,7.67,4.14A7.61,7.61,0,0,0,248,43.91a12.54,12.54,0,0,0,2.31-8q0-6.33-2.91-10.32Zm31.4-.4c-.71.86-1.21,1.3-1.51,1.33a5.28,5.28,0,0,1-1.43-.77,4.6,4.6,0,0,0-2.64-1,4.32,4.32,0,0,0-3.29,1.41,5,5,0,0,0-1.31,3.54V41.25a7.46,7.46,0,0,0,.72,3.84,3.14,3.14,0,0,0,2.53,1.3l1.69.13c.69,0,1,.26,1,.64s-.3.64-.91.64c-.15,0-.66,0-1.52-.15a17.16,17.16,0,0,0-1.81-.07l-2.34,0h-1.43a28.11,28.11,0,0,0-3.6.16c-.56.09-.94.14-1.16.16q-.87,0-.87-.63c0-.36.34-.59,1-.72a2.42,2.42,0,0,0,1.8-1.2,10.63,10.63,0,0,0,.4-3.7V27.82c0-2.46-1.19-3.71-3.56-3.71l-1.09,0c-.5,0-.74-.21-.74-.66,0-.26.16-.45.48-.59s.44-.07.71-.09A17.22,17.22,0,0,0,267.07,20a2.36,2.36,0,0,1,.74-.26c.5,0,.76.35.76,1.1l0,.6v4.8c2.51-3.91,4.81-5.86,6.93-5.86a5,5,0,0,1,2.64,1.19c1.08.8,1.65,1.44,1.7,1.93,0,.33-.32.92-1,1.77Zm13.71,19.29a5,5,0,0,0,3.79,1.37,7,7,0,0,0,3.32-.71l1.69-.8.2-.07c.26,0,.38.13.38.36,0,.7-.85,1.46-2.55,2.28a11.16,11.16,0,0,1-4.77,1.23c-5,0-7.44-2.57-7.44-7.71V24.25h-2.87c-.56,0-.85-.16-.85-.49s.29-.69.85-1.16A28.23,28.23,0,0,0,290,16.21c.58-.94,1-1.42,1.23-1.42s.45.28.45.84l-.14,5.57h6.89a4,4,0,0,0,2.2-.51,1.94,1.94,0,0,1,.71-.4c.24,0,.35.08.32.36a3,3,0,0,1-.29.81l-.74,1.85a1.38,1.38,0,0,1-1.42.94h-7.67V40.44c0,2.09.3,3.46.91,4.09Zm24.78,3.17c-.37,0-1.07,0-2.12-.14-.58-.06-1.34-.07-2.27-.07l-2.08,0-2.36.13c-.44,0-.77.06-1,.09-.57.07-1,.1-1.18.1q-.87,0-.87-.59a.71.71,0,0,1,.58-.7l.62-.19A2.33,2.33,0,0,0,308,45.08a7.14,7.14,0,0,0,.41-2.8v-14a7.52,7.52,0,0,0-.51-3.46c-.35-.55-1.09-.8-2.23-.8-.83,0-1.22-.17-1.2-.51s.57-.62,1.65-.94a33.54,33.54,0,0,0,4.62-2.06l1.72-.8c.28,0,.42.28.42.77V42.13a6.21,6.21,0,0,0,.5,3.06,2.86,2.86,0,0,0,2.12,1l1.49.16c.78.11,1.15.38,1.14.81s-.31.53-.87.53Zm-6.62-33.91c-.44,0-1-.43-1.73-1.29a3.73,3.73,0,0,1-1.07-2A3.71,3.71,0,0,1,309,8.4c.79-.88,1.41-1.33,1.84-1.33s1,.43,1.59,1.29l.78,1.22a1.45,1.45,0,0,1,.33.81,3.47,3.47,0,0,1-1.1,2.07q-1.13,1.33-1.81,1.33ZM350.33,47l-2,.13a17.9,17.9,0,0,0-2.71.26,5.6,5.6,0,0,1-1.2.2c-.69,0-1-1-1-3l0-1.24c-2.5,3.23-5.55,4.83-9.12,4.83a9.1,9.1,0,0,1-7.08-2.79q-2.53-2.77-2.54-7.76l0-2.13V24.87a3.13,3.13,0,0,0-.67-2.29,4.08,4.08,0,0,0-2.52-.74c-.55,0-.8-.26-.78-.66s.69-.59,2-.65l2.44-.1A15.11,15.11,0,0,0,327.5,20a3.61,3.61,0,0,1,.71-.12c.58,0,.87.5.87,1.5v.49L329,36.22v1l.51,3.89A6.83,6.83,0,0,0,332,44.55a6.61,6.61,0,0,0,4,1.35,8.18,8.18,0,0,0,5.07-1.66,4.74,4.74,0,0,0,2.22-3.8V25.06a3.76,3.76,0,0,0-.63-2.51,3.17,3.17,0,0,0-2.35-.67c-.69,0-1-.2-1-.6s.39-.72,1.16-.74l1.07-.07,2.27-.09a10.71,10.71,0,0,0,2.52-.51,4,4,0,0,1,.78-.16c.45,0,.67.36.67,1.15V41.73A6.56,6.56,0,0,0,348.3,45a2.5,2.5,0,0,0,2.19.78H351l.45,0c.48,0,.72.17.74.5s-.6.73-1.87.79Zm53.75.58a6.66,6.66,0,0,1-1-.1,26.1,26.1,0,0,0-3.22-.15,52.82,52.82,0,0,0-5.36.15,8.14,8.14,0,0,1-1,.1c-.56,0-.86-.21-.87-.63,0-.24.15-.44.55-.59a4.72,4.72,0,0,0,1.86-1.07,2.55,2.55,0,0,0,.44-1.67l0-1.08V32a10.81,10.81,0,0,0-1.85-6.74,6.16,6.16,0,0,0-5.18-2.42,7.35,7.35,0,0,0-4.2,1.36c-1.34.9-2,1.85-2,2.85a3.77,3.77,0,0,0,.11.8,13.93,13.93,0,0,1,.2,2.23V41.74a5.42,5.42,0,0,0,.81,3.43,4.56,4.56,0,0,0,3.13,1.15c.71.07,1.07.3,1.07.71s-.31.58-.94.58c-.22,0-.56,0-1-.07a29.43,29.43,0,0,0-3.06-.19c-3,0-4.82.06-5.6.15a6.37,6.37,0,0,1-1,.1c-.51,0-.78-.19-.78-.56s.2-.44.58-.57a3.9,3.9,0,0,0,2-1.2,8.65,8.65,0,0,0,.32-3.14V30.23a7.65,7.65,0,0,0-1.77-5.32A6.23,6.23,0,0,0,371.53,23a7,7,0,0,0-4.6,1.45,4.72,4.72,0,0,0-1.76,3.82V42.05a4.32,4.32,0,0,0,.92,3.06,5,5,0,0,0,3.13,1.21c.66.07,1,.31,1,.73s-.27.58-.78.56l-1.56-.16a25.42,25.42,0,0,0-2.7-.09H363l-2.2,0c-.3,0-.69,0-1.14.07l-1.2.15q-.8,0-.8-.56c0-.32.23-.57.71-.73a3.21,3.21,0,0,0,1.91-1.15,6.15,6.15,0,0,0,.42-2.77V28a6.85,6.85,0,0,0-.5-3.17,2,2,0,0,0-1.86-.87h-1.43a1,1,0,0,1-.55-.16.35.35,0,0,1-.2-.34c0-.29.26-.51.79-.66a25.67,25.67,0,0,0,6.2-2.48,5.41,5.41,0,0,1,1.52-.71c.33,0,.49.4.49,1.2v3.89a10.78,10.78,0,0,1,8.53-4.35,8.86,8.86,0,0,1,4.66,1.09,10.76,10.76,0,0,1,3.4,3.73q3.69-4.83,8.86-4.82a8.63,8.63,0,0,1,6.83,2.78q2.46,2.79,2.45,7.78V41.27a5.75,5.75,0,0,0,1,3.67,4.55,4.55,0,0,0,3.2,1.41c.51,0,.78.28.78.7s-.25.56-.78.56Z" transform="translate(-0.73 -0.59)"/></svg>