<?xml version="1.0" encoding="utf-8"?>
<!-- Generator: Adobe Illustrator 16.0.0, SVG Export Plug-In . SVG Version: 6.00 Build 0)  -->
<!DOCTYPE svg PUBLIC "-//W3C//DTD SVG 1.1//EN" "http://www.w3.org/Graphics/SVG/1.1/DTD/svg11.dtd">
<svg version="1.1" id="Livello_1" xmlns="http://www.w3.org/2000/svg" xmlns:xlink="http://www.w3.org/1999/xlink" x="0px" y="0px"
	 width="150px" height="50px" viewBox="0 0 150 50" enable-background="new 0 0 150 50" xml:space="preserve">
<g>
	<g>
		<g>
			<g>
				<g>
					<path fill="none" stroke="#FFFFFF" stroke-width="0.75" stroke-miterlimit="10" d="M23.539,46.545
						c-0.002-0.011-0.03-0.038-0.193-0.038l0,0c-0.141,0-0.344,0.021-0.583,0.021l0,0c-0.153,0-0.321-0.009-0.5-0.04l0,0
						c-0.808-0.116-0.946-0.737-1.012-0.958l0,0c-0.128-0.368,0.052-0.306-0.482-0.848l0,0c-0.105-0.099-0.173-0.115-0.227-0.116
						l0,0c-0.085-0.005-0.206,0.075-0.3,0.186l0,0c-0.093,0.108-0.147,0.216-0.147,0.216l0,0l-0.109,0.219l-0.197-0.145
						c-0.009-0.013-0.285-0.196-0.424-0.464l0,0c-0.001,0.003-0.001-0.004-0.021-0.022l0,0c-0.019-0.018-0.049-0.042-0.085-0.07l0,0
						c-0.073-0.055-0.171-0.121-0.275-0.194l0,0c-0.205-0.151-0.44-0.316-0.553-0.582l0,0c-0.045-0.084-0.036-0.066-0.128-0.08l0,0
						c-0.111-0.003-0.273,0.06-0.458,0.066l0,0c-0.399-0.03-0.647-0.387-0.865-0.798l0,0c-0.004-0.03-0.104-0.084-0.286-0.082l0,0
						c-0.229-0.003-0.522,0.08-0.532,0.086l0,0l-0.09-0.202h-0.03l-0.107,0.117c-0.001,0-0.002-0.002-0.003-0.003l0,0
						c-0.003-0.001-0.005-0.002-0.008-0.007l0,0c-0.01-0.007-0.024-0.019-0.042-0.031l0,0c-0.053-0.038-0.135-0.093-0.225-0.156l0,0
						c-0.181-0.127-0.399-0.281-0.551-0.459l0,0c-0.105-0.121-0.153-0.264-0.151-0.385l0,0c0-0.098,0.024-0.175,0.042-0.229l0,0
						c0.004-0.014,0.008-0.025,0.012-0.035l0,0c-0.16-0.108-0.422-0.244-0.458-0.58l0,0c-0.001-0.106,0.052-0.218,0.127-0.289l0,0
						c0.149-0.146,0.328-0.155,0.479-0.157l0,0c0.168,0,0.334,0.023,0.457,0.023l0,0c0.087,0.001,0.145-0.015,0.153-0.023l0,0
						c0.114-0.069,0.096-0.067,0.099-0.069l0,0c0.006-0.015,0.06-0.118,0.164-0.201l0,0c0.042-0.031,0.145-0.179,0.232-0.323l0,0
						c0.094-0.148,0.169-0.291,0.261-0.387l0,0c0.033-0.036,0.095-0.087,0.188-0.088l0,0c0.213,0.031,0.219,0.157,0.248,0.202l0,0
						c0.022,0.062,0.038,0.124,0.055,0.19l0,0c0.033,0.133,0.075,0.278,0.128,0.356l0,0c0.03,0.051,0.057,0.092,0.079,0.122l0,0
						c0.066-0.107,0.234-0.401,0.44-0.676l0,0c0.234-0.292,0.483-0.609,0.873-0.631l0,0c0.17-0.003,0.338,0.096,0.447,0.248l0,0
						c0.361,0.498,0.974,1.218,1.223,1.332l0,0h0l0,0c0.131-0.194,0.315-0.567,0.756-0.592l0,0c0.15,0,0.302,0.057,0.452,0.16l0,0
						c0.179,0.12,0.403,0.192,0.648,0.192l0,0c0.369-0.001,0.79-0.16,1.182-0.576l0,0c0.247-0.269,0.537-0.381,0.797-0.377l0,0
						c0.361,0.002,0.663,0.188,0.838,0.304l0,0c0.009-0.025,0.022-0.055,0.04-0.086l0,0c0.036-0.069,0.146-0.147,0.253-0.142l0,0
						c0.055,0,0.104,0.014,0.149,0.03l0,0c0.035,0.015,0.064,0.02,0.093,0.02l0,0c0.085,0.004,0.206-0.061,0.336-0.208l0,0
						c0.294-0.305,0.847-0.395,0.862-0.407l0,0l0.135-0.029l0.079,0.113c0.055,0.081,0.076,0.174,0.076,0.258l0,0
						c-0.002,0.04-0.008,0.08-0.016,0.121l0,0c0,0,0.001,0,0.001,0l0,0c0.517-0.019,1.078-0.845,1.056-1.255l0,0
						c-0.001-0.108-0.029-0.154-0.053-0.173l0,0c-0.105-0.081-0.181-0.211-0.178-0.345l0,0c0.017-0.291,0.231-0.454,0.468-0.594l0,0
						c0.237-0.13,0.531-0.22,0.827-0.227l0,0c-0.055-0.16-0.089-0.362-0.088-0.61l0,0c0-0.062,0.002-0.125,0.006-0.189l0,0
						c0.038-0.639,0.096-1.061,0.095-1.319l0,0c-0.02-0.312-0.021-0.319-0.238-0.448l0,0c-0.374-0.24-0.339-0.686-0.374-1.133l0,0
						c-0.01-0.448-0.01-0.936-0.085-1.107l0,0c-0.011-0.027-0.017-0.039-0.021-0.046l0,0c-0.573,0.078-0.974,0.241-0.975,0.241l0,0
						l-0.362,0.146l0.083-0.38c-0.001,0,0.018-0.081,0.018-0.187l0,0c0.001-0.093-0.018-0.194-0.052-0.246l0,0
						c-0.038-0.05-0.059-0.08-0.195-0.086l0,0c-0.66,0.012-0.87-0.35-1.053-0.46l0,0c-0.058-0.034-0.123-0.128-0.118-0.218l0,0
						c0.01-0.146,0.072-0.19,0.113-0.249l0,0c0.046-0.056,0.097-0.108,0.143-0.165l0,0c0.094-0.117,0.165-0.238,0.165-0.378l0,0
						c0.002-0.171-0.107-0.453-0.594-0.852l0,0c-0.178,0.17-0.516,0.436-0.94,0.448l0,0c-0.045,0-0.092-0.003-0.138-0.011l0,0
						c-0.179-0.007-0.343-0.211-0.321-0.364l0,0c0.006-0.197,0.097-0.355,0.168-0.515l0,0c0.041-0.079,0.077-0.161,0.101-0.222l0,0
						c-0.105,0.02-0.154,0.068-0.232,0.146l0,0c-0.087,0.084-0.198,0.275-0.467,0.285l0,0c-0.038,0-0.079-0.005-0.123-0.016l0,0
						c-0.204-0.072-0.244-0.215-0.309-0.354l0,0c-0.058-0.146-0.104-0.322-0.154-0.514l0,0c-0.097-0.38-0.199-0.821-0.331-1.095l0,0
						c-0.086-0.189-0.183-0.262-0.209-0.257l0,0c-0.042-0.006-0.081-0.008-0.119-0.008l0,0c-0.271,0.002-0.367,0.138-0.411,0.2l0,0
						c-0.014,0.021-0.014,0.024-0.014,0.024l0,0l-0.133,0.33l-0.22-0.28c-0.001,0-0.1-0.128-0.243-0.254l0,0
						c-0.143-0.131-0.332-0.237-0.429-0.231l0,0c-0.034,0.001-0.057,0.007-0.087,0.025l0,0c-0.462,0.274-0.91,0.359-0.923,0.363l0,0
						l-0.268,0.052l0.106-1.235c-0.004-0.005-0.008-0.01-0.013-0.015l0,0c-0.026-0.024-0.051-0.048-0.132-0.051l0,0
						c-0.082,0-0.235,0.037-0.472,0.195l0,0c-0.146,0.095-0.261,0.155-0.406,0.159l0,0c-0.197,0.007-0.329-0.173-0.354-0.289l0,0
						c-0.04-0.125-0.05-0.255-0.069-0.391l0,0c-0.034-0.274-0.094-0.543-0.271-0.69l0,0c-0.206-0.171-0.298-0.357-0.294-0.519l0,0
						c0.003-0.111,0.024-0.174,0.021-0.199l0,0c0.006-0.018,0.01-0.132-0.551-0.454l0,0c-0.604-0.325-0.757-0.624-0.743-0.883l0,0
						c0-0.041,0.001-0.075,0.001-0.104l0,0c-0.008-0.135,0.005-0.246-0.326-0.588l0,0c-0.483-0.487-0.93-0.686-1.198-0.681l0,0
						c-0.184,0.005-0.278,0.063-0.353,0.204l0,0c-0.015,0.03-0.029,0.055-0.05,0.084l0,0c-0.025,0.02-0.038,0.085-0.188,0.102l0,0
						c-0.108,0-0.178-0.083-0.191-0.118l0,0c-0.02-0.04-0.022-0.062-0.027-0.082l0,0c-0.005-0.039-0.006-0.07-0.006-0.106l0,0
						c0-0.12,0.012-0.294,0.012-0.494l0,0c0.001-0.262-0.023-0.562-0.105-0.765l0,0c-0.093-0.206-0.176-0.294-0.397-0.303l0,0
						c-0.285,0-0.48-0.034-0.633-0.11l0,0c-0.153-0.071-0.253-0.237-0.246-0.377l0,0c0.001-0.025,0.004-0.048,0.008-0.07l0,0
						c-0.09-0.002-0.187-0.014-0.287-0.062l0,0c-0.112-0.047-0.223-0.192-0.216-0.347l0,0c0.002-0.153,0.066-0.292,0.178-0.463l0,0
						c0.18-0.271,0.249-0.534,0.249-0.757l0,0c0.001-0.349-0.17-0.591-0.325-0.647l0,0c-0.216-0.1-0.239-0.309-0.239-0.46l0,0
						c0.004-0.378,0.159-0.91,0.157-1.316l0,0c-0.018-0.343-0.061-0.469-0.3-0.517l0,0c-0.528-0.085-0.804-0.203-0.997-0.345l0,0
						c-0.194-0.146-0.263-0.258-0.443-0.363l0,0c-0.272-0.169-0.373-0.399-0.491-0.538l0,0c-0.121-0.139-0.231-0.242-0.618-0.286
						l0,0c-0.707-0.074-1.396-0.307-1.658-0.403l0,0c-0.167,0.129-0.55,0.428-0.945,0.767l0,0c-0.525,0.438-1.078,1.014-1.11,1.193
						l0,0c-0.209,0.584-1.047,0.905-1.823,0.927l0,0c-0.359-0.001-0.719-0.084-0.988-0.32l0,0l-0.187-0.166l0.198-0.153
						c-0.001,0,0.147-0.111,0.294-0.282l0,0c0.151-0.169,0.28-0.392,0.274-0.552l0,0c-0.003-0.1-0.029-0.186-0.153-0.297l0,0
						c-0.316-0.278-0.704-0.484-1.012-0.616l0,0c-0.307-0.133-0.527-0.192-0.527-0.192l0,0l-0.113-0.03l-0.271-0.986l-0.5-0.377
						l0.788-0.595l-0.222-0.818L1.436,9.691c-0.17-0.107-0.545-0.369-0.578-0.807l0,0c0-0.282,0.211-0.528,0.592-0.698l0,0
						c0.343-0.158,0.613-0.268,0.796-0.355l0,0C2.416,7.753,2.494,7.687,2.505,7.67l0,0C2.503,7.654,2.463,7.552,2.322,7.393l0,0
						c-0.177-0.207-0.434-0.342-0.67-0.47l0,0C1.434,6.795,1.156,6.676,1.136,6.332l0,0c0-0.137,0.058-0.263,0.147-0.389l0,0
						C1.75,5.292,2.26,5.261,2.307,5.264l0,0h0.024l0.656,0.161l0.59-0.166l0.431,0.071c0.109-0.132,0.323-0.327,0.665-0.336l0,0
						c0.049,0,0.1,0.004,0.151,0.015l0,0l0.23,0.045L4.978,5.278c0.003,0-0.018,0.055-0.017,0.108l0,0
						c0,0.024,0.004,0.043,0.007,0.049l0,0C4.972,5.436,4.986,5.44,5.018,5.44l0,0c0.019,0,0.044-0.001,0.075-0.006l0,0
						c0.495-0.107,0.579-0.165,0.597-0.478l0,0c0-0.117-0.007-0.232-0.008-0.345l0,0C5.685,4.474,5.687,4.333,5.777,4.19l0,0
						C5.87,4.044,6.053,3.977,6.238,3.981l0,0c0.147,0,0.281,0.009,0.383,0.009l0,0c0.102,0.002,0.16-0.012,0.175-0.019l0,0
						c0.001-0.005,0.005-0.018,0.005-0.043l0,0C6.795,3.813,6.86,3.682,6.958,3.623l0,0c0.096-0.06,0.19-0.07,0.279-0.071l0,0
						c0.2,0.002,0.417,0.065,0.585,0.12l0,0C7.815,3.615,7.808,3.549,7.807,3.484l0,0c0.001-0.061,0.004-0.128,0.047-0.21l0,0
						c0.04-0.086,0.164-0.156,0.26-0.149l0,0c0.297,0.031,0.482,0.249,0.746,0.501l0,0c0.247,0.257,0.486,0.56,0.63,0.795l0,0
						C9.63,4.66,9.802,4.9,9.922,5.061l0,0l1.435-1.599l1.578,0.086c0.068-0.04,0.197-0.118,0.336-0.215l0,0
						c0.203-0.139,0.422-0.335,0.467-0.439l0,0c0.235-0.422,0.746-0.773,1.211-0.792l0,0c0.287,0.005,0.586,0.118,0.785,0.114l0,0
						c0.1-0.001,0.147-0.021,0.18-0.053l0,0c0.046-0.03,0.15-0.321,0.238-0.584l0,0C16.26,1.33,16.32,1,16.705,0.953l0,0
						c0.082,0,0.159,0.026,0.225,0.066l0,0c0.406,0.269,0.601,0.59,0.748,0.555l0,0c0.04,0,0.091-0.01,0.166-0.047l0,0
						c0.197-0.073,0.146-0.373,0.318-0.719l0,0c0.066-0.118,0.227-0.211,0.388-0.204l0,0c0.096,0,0.195,0.021,0.308,0.059l0,0
						c0.454,0.15,0.685,0.486,0.837,0.737l0,0c0.156,0.274,0.251,0.382,0.293,0.36l0,0c0.527,0.026,0.958,0.522,1.068,0.643l0,0
						c0.018,0.012,0.198,0.152,0.447,0.293l0,0c0.26,0.15,0.596,0.289,0.836,0.286l0,0c0.109,0,0.193-0.023,0.261-0.072l0,0
						c0.159-0.115,0.254-0.241,0.336-0.356l0,0c0.086-0.099,0.128-0.259,0.382-0.288l0,0c0.277,0.037,0.354,0.209,0.594,0.521l0,0
						c0.133,0.185,0.217,0.205,0.26,0.206l0,0c0.066,0.012,0.216-0.104,0.323-0.269l0,0c0.108-0.159,0.173-0.32,0.173-0.322l0,0
						l0.1-0.247l0.214,0.16c0.014,0.016,0.31,0.214,0.321,0.613l0,0c0.001,0.278-0.178,0.575-0.593,0.836l0,0
						c-0.04,0.024-0.075,0.048-0.105,0.069l0,0c0.153-0.004,0.32-0.021,0.426-0.022l0,0c0.065,0.002,0.131,0.005,0.208,0.044l0,0
						c0.081,0.032,0.161,0.149,0.153,0.249l0,0c-0.035,0.286-0.227,0.439-0.657,0.837l0,0c-0.064,0.056-0.108,0.103-0.134,0.137l0,0
						c0.061,0.014,0.154,0.021,0.223,0.021l0,0c0.062,0,0.103-0.003,0.103-0.004l0,0l0.242-0.019l-0.091,1.019
						c0.114,0.042,0.278,0.108,0.445,0.194l0,0c0.291,0.165,0.651,0.347,0.682,0.756l0,0c0,0.075-0.019,0.153-0.055,0.222l0,0
						c-0.083,0.184-0.259,0.311-0.434,0.305l0,0c-0.328-0.026-0.537-0.267-0.63-0.383l0,0l-0.545-0.134L23.91,7.367l-0.091-0.184
						c0,0-0.053-0.106-0.128-0.225l0,0c-0.044-0.075-0.104-0.154-0.151-0.206l0,0c-0.253,0.401-0.812,0.868-1.417,0.887l0,0
						c-0.22,0-0.434,0.057-0.589,0.114l0,0c-0.155,0.059-0.245,0.112-0.245,0.112l0,0l-0.213,0.125L20.99,7.76
						c-0.003,0-0.02-0.051-0.058-0.102l0,0c-0.04-0.054-0.077-0.072-0.091-0.07l0,0c-0.014-0.003-0.107,0.016-0.263,0.223l0,0
						c-0.17,0.232-0.352,0.367-0.494,0.446l0,0c0.197,0.173,0.293,0.383,0.292,0.582l0,0c-0.002,0.21-0.089,0.379-0.175,0.517l0,0
						c0.05,0.033,0.131,0.076,0.219,0.126l0,0c0.176,0.104,0.446,0.258,0.458,0.6l0,0c0.004,0.136-0.085,0.268-0.181,0.323l0,0
						c-0.096,0.06-0.194,0.083-0.294,0.101l0,0c-0.199,0.033-0.419,0.034-0.58,0.055l0,0c-0.063,0.005-0.112,0.018-0.142,0.027l0,0
						c0.028,0.167,0.036,0.383,0.036,0.612l0,0c0,0.431-0.03,0.895-0.038,1.003l0,0l0.163,1.038
						c0.009,0.012,0.021,0.026,0.037,0.044l0,0c0.044,0.051,0.11,0.119,0.196,0.188l0,0c0.174,0.136,0.423,0.267,0.749,0.267l0,0
						c0.074,0,0.152-0.006,0.237-0.021l0,0l0.019-0.003h0.018c0.149,0.016,0.417,0.089,1.035,1.125l0,0
						c0.285,0.485,0.502,0.605,0.716,0.68l0,0c0.212,0.078,0.489,0.073,0.769,0.295l0,0l0.097,0.078l-0.025,0.123
						c0.002,0-0.031,0.148-0.029,0.344l0,0c-0.004,0.248,0.06,0.532,0.211,0.645l0,0c0.267,0.206,0.362,0.496,0.378,0.82l0,0
						c0.022,0.331,0,0.747,0.042,1.378l0,0c0.085,1.171,0.904,1.528,1.377,1.904l0,0c0.499,0.436,0.993,1.622,1.87,1.75l0,0
						c0.082,0.014,0.178,0.02,0.285,0.02l0,0c0.695,0.003,1.753-0.29,2.551-0.292l0,0c0.382,0.002,0.745,0.062,0.971,0.353l0,0
						c0.085,0.112,0.133,0.242,0.132,0.371l0,0c-0.021,0.406-0.356,0.627-0.64,0.837l0,0c-0.245,0.159-0.5,0.338-0.567,0.407l0,0
						c0.089,0.191,0.167,0.431,0.282,0.625l0,0c0.13,0.211,0.255,0.326,0.457,0.328l0,0c0.754,0.031,1.47,0.802,2.439,1.029l0,0
						c0.568,0.141,0.876,0.471,1.114,0.776l0,0c0.243,0.311,0.431,0.589,0.807,0.777l0,0c0.379,0.189,0.74,0.191,1.061,0.191l0,0
						c0.16,0.001,0.309-0.002,0.457,0.032l0,0c0.146,0.029,0.31,0.136,0.375,0.31l0,0l0.027,0.067l-0.021,0.068
						c0.003,0.001-0.046,0.155-0.045,0.343l0,0c0.004,0.231,0.057,0.43,0.272,0.521l0,0l-0.081,0.188l0.082-0.188
						c0.47,0.212,1.122,0.562,1.145,1.235l0,0c0.001,0.196-0.066,0.401-0.202,0.604l0,0c-0.352,0.533-0.235,0.854-0.383,1.204l0,0
						c-0.057,0.125-0.196,0.228-0.345,0.251l0,0c-0.08,0.016-0.168,0.022-0.262,0.022l0,0c-0.24-0.001-0.521-0.048-0.769-0.191l0,0
						c-0.247-0.138-0.456-0.411-0.451-0.774l0,0c0-0.106,0.016-0.219,0.048-0.335l0,0c0.031-0.115,0.043-0.217,0.043-0.309l0,0
						c0-0.463-0.351-0.667-0.479-0.668l0,0c-0.021,0-0.021,0.002-0.022,0.002l0,0c-0.142,0.083-0.282,0.09-0.468,0.095l0,0
						c-0.275-0.001-0.615-0.052-0.912-0.173l0,0c-0.287-0.117-0.581-0.332-0.587-0.702l0,0c0-0.075,0.014-0.151,0.039-0.223l0,0
						c0.014-0.045,0.02-0.078,0.023-0.101l0,0c-0.196-0.016-0.828,0.324-1.052,0.566l0,0c-0.349,0.352-0.734,1.07-0.805,1.205l0,0
						c-0.018,0.068-0.079,0.291-0.174,0.521l0,0c-0.127,0.256-0.228,0.582-0.597,0.638l0,0c-0.004,0.004-0.01,0.012-0.017,0.024l0,0
						c-0.022,0.039-0.043,0.119-0.042,0.204l0,0c0.017,0.246,0.101,0.467,0.465,0.475l0,0c0.982,0.013,1.596,0.837,1.612,0.849l0,0
						l0.07,0.09l-0.038,0.106c0.001,0-0.171,0.484-0.167,0.795l0,0c-0.003,0.117,0.031,0.184,0.035,0.185l0,0
						c0.134,0.143,0.158,0.316,0.161,0.493l0,0c-0.001,0.235-0.061,0.489-0.17,0.708l0,0c-0.108,0.209-0.276,0.424-0.563,0.433l0,0
						c-0.365-0.001-1.171-0.06-1.454-0.081l0,0c-0.045,0.05-0.109,0.126-0.173,0.217l0,0c-0.12,0.165-0.223,0.38-0.219,0.512l0,0
						c0,0.067,0.002,0.143,0.002,0.223l0,0c0.015,0.399-0.104,0.965-0.871,1.401l0,0c-0.803,0.49-1.019,1.018-1.189,1.515l0,0
						c-0.122,0.36-0.481,0.439-0.745,0.432l0,0c-0.254-0.002-0.512-0.049-0.67-0.048l0,0c-0.045,0-0.082,0.005-0.108,0.013l0,0
						c-0.027,0.005-0.053,0.007-0.076,0.007l0,0c-0.264-0.021-0.412-0.197-0.562-0.394l0,0c-0.074-0.108-0.14-0.229-0.187-0.354l0,0
						c-0.133,0.184-0.257,0.348-0.324,0.472l0,0c-0.236,0.396-0.575,1.15-0.725,1.452l0,0c-0.115,0.213-0.294,0.291-0.407,0.389l0,0
						c-0.117,0.1-0.173,0.158-0.177,0.319l0,0c0,0.042,0.004,0.092,0.019,0.152l0,0c0.125,0.425,0.204,0.347,0.359,0.444l0,0
						c0.026,0.015,0.109,0.074,0.112,0.194l0,0c-0.013,0.139-0.073,0.163-0.102,0.197l0,0c0.001,0-0.002,0-0.011,0.02l0,0
						c-0.008,0.018-0.017,0.047-0.023,0.079l0,0c-0.01,0.053-0.015,0.115-0.017,0.163l0,0c0.136,0.137,0.216,0.288,0.218,0.452l0,0
						c0.002,0.119-0.052,0.24-0.143,0.316l0,0c-0.09,0.077-0.207,0.112-0.326,0.112l0,0c0,0.002,0,0.001-0.008,0.004l0,0
						c-0.011,0.005-0.03,0.017-0.051,0.034l0,0c-0.043,0.036-0.098,0.098-0.144,0.173l0,0c-0.097,0.146-0.167,0.349-0.164,0.485l0,0
						c0,0.063,0.014,0.109,0.029,0.136l0,0c0.047,0.08,0.073,0.17,0.073,0.257l0,0c-0.027,0.384-0.359,0.575-0.657,0.588l0,0
						c-0.003,0-0.005,0-0.007,0l0,0C23.778,46.734,23.625,46.681,23.539,46.545L23.539,46.545z M23.91,46.323
						c0.041,0.001,0.121-0.024,0.173-0.067l0,0c0.056-0.045,0.075-0.091,0.073-0.109l0,0c0-0.011-0.002-0.023-0.016-0.047l0,0
						c-0.064-0.109-0.086-0.229-0.086-0.346l0,0c0.001-0.251,0.098-0.501,0.229-0.708l0,0c0.137-0.197,0.281-0.382,0.549-0.4l0,0
						c0.043,0,0.058-0.011,0.059-0.012l0,0v-0.005c0.002-0.017-0.02-0.103-0.144-0.205l0,0l-0.068-0.058l-0.004-0.086
						c-0.001-0.004-0.002-0.032-0.002-0.073l0,0c0.009-0.096-0.005-0.257,0.066-0.42l0,0c-0.004-0.002-0.008-0.005-0.013-0.008l0,0
						c-0.143-0.098-0.295-0.29-0.362-0.611l0,0c-0.019-0.084-0.028-0.165-0.028-0.241l0,0c-0.005-0.313,0.178-0.524,0.332-0.642l0,0
						c0.158-0.119,0.281-0.203,0.294-0.249l0,0c0.145-0.289,0.483-1.047,0.74-1.478l0,0c0.2-0.319,0.654-0.909,0.764-1.21l0,0
						c-0.015,0.005-0.029,0.009-0.044,0.015l0,0c-0.15,0.051-0.32,0.139-0.364,0.195l0,0c-0.167,0.188-0.375,0.345-0.645,0.348l0,0
						c-0.056,0-0.112-0.008-0.167-0.022l0,0c-0.011,0.072-0.027,0.197-0.237,0.276l0,0c-0.014,0.001-0.028,0.002-0.04,0.002l0,0
						c-0.146-0.015-0.163-0.058-0.232-0.092l0,0c-0.06-0.039-0.126-0.084-0.201-0.128l0,0c-0.149-0.089-0.327-0.165-0.495-0.164l0,0
						c-0.152,0.004-0.309,0.051-0.497,0.247l0,0c-0.457,0.489-0.991,0.708-1.481,0.707l0,0c-0.325,0-0.63-0.095-0.879-0.264l0,0
						c-0.105-0.072-0.175-0.089-0.221-0.089l0,0c-0.13-0.025-0.308,0.233-0.467,0.481l0,0c-0.056,0.081-0.168,0.13-0.255,0.126l0,0
						c-0.316-0.031-0.52-0.274-0.81-0.562l0,0c-0.274-0.294-0.56-0.655-0.778-0.951l0,0c-0.063-0.08-0.088-0.079-0.117-0.082l0,0
						c-0.079-0.021-0.347,0.188-0.544,0.468l0,0c-0.207,0.273-0.37,0.568-0.44,0.679l0,0c-0.066,0.096-0.155,0.202-0.321,0.207l0,0
						c-0.267-0.033-0.316-0.201-0.433-0.359l0,0c-0.066-0.105-0.112-0.23-0.144-0.342l0,0c-0.013,0.021-0.025,0.042-0.038,0.062l0,0
						c-0.097,0.153-0.189,0.31-0.316,0.42l0,0c-0.068,0.066-0.04,0.035-0.074,0.094l0,0c-0.038,0.071-0.117,0.146-0.244,0.218l0,0
						c-0.125,0.072-0.249,0.079-0.365,0.08l0,0c-0.165-0.001-0.33-0.024-0.457-0.023l0,0c-0.121-0.002-0.185,0.027-0.188,0.036l0,0
						h-0.007c0.003,0-0.001,0.001,0.01,0.021l0,0c0.013,0.019,0.037,0.047,0.07,0.077l0,0c0.065,0.061,0.157,0.122,0.231,0.168l0,0
						c0.093,0.05,0.163,0.182,0.155,0.276l0,0c-0.014,0.18-0.07,0.247-0.063,0.303l0,0c0.002,0.031,0.003,0.057,0.054,0.119l0,0
						c0.165,0.197,0.557,0.436,0.744,0.579l0,0c0.13-0.03,0.323-0.067,0.531-0.069l0,0c0.221,0.003,0.503,0.038,0.654,0.31l0,0
						c0.164,0.368,0.452,0.591,0.497,0.571l0,0c0.054,0.005,0.249-0.063,0.458-0.066l0,0c0.173-0.014,0.424,0.093,0.509,0.339l0,0
						c0.034,0.101,0.214,0.264,0.411,0.398l0,0c0.198,0.15,0.389,0.236,0.511,0.438l0,0c0.021,0.045,0.075,0.111,0.131,0.169l0,0
						c0.125-0.173,0.341-0.387,0.677-0.408l0,0c0.173-0.001,0.354,0.077,0.512,0.23l0,0c0.582,0.531,0.522,0.833,0.584,1.006l0,0
						c0.126,0.314,0.09,0.568,0.695,0.691l0,0c0.15,0.027,0.293,0.035,0.43,0.035l0,0c0.213,0,0.406-0.021,0.583-0.022l0,0
						c0.178-0.002,0.401,0.023,0.536,0.223l0,0C23.885,46.319,23.895,46.323,23.91,46.323L23.91,46.323z M27.982,40.658
						c0.236-0.008,0.318-0.04,0.354-0.149l0,0c0.172-0.522,0.466-1.198,1.368-1.736l0,0c0.655-0.409,0.656-0.695,0.67-1.05l0,0
						c0-0.072-0.003-0.146-0.003-0.223l0,0c0.022-0.577,0.57-1.065,0.575-1.087l0,0l0.067-0.066l0.095,0.008
						c0.001,0,1.114,0.087,1.521,0.086l0,0c0.022,0.009,0.118-0.047,0.196-0.206l0,0c0.078-0.15,0.127-0.362,0.126-0.522l0,0
						c0.003-0.122-0.035-0.203-0.041-0.203l0,0c-0.136-0.142-0.153-0.313-0.156-0.475l0,0c0.003-0.305,0.098-0.644,0.153-0.817l0,0
						c-0.061-0.066-0.161-0.166-0.297-0.269l0,0c-0.235-0.176-0.558-0.343-0.921-0.343l0,0c-0.296,0.003-0.537-0.119-0.679-0.298
						l0,0c-0.144-0.18-0.197-0.392-0.198-0.588l0,0c0.008-0.266,0.086-0.594,0.444-0.636l0,0c0.001-0.001,0.005-0.003,0.011-0.007
						l0,0c0.016-0.012,0.041-0.035,0.068-0.072l0,0c0.055-0.072,0.115-0.189,0.164-0.309l0,0c0.1-0.24,0.16-0.484,0.16-0.484l0,0
						l0.006-0.023l0.011-0.021c0.006-0.008,0.43-0.857,0.89-1.332l0,0c0.329-0.311,0.903-0.669,1.346-0.686l0,0
						c0.089,0,0.191,0.017,0.281,0.09l0,0c0.091,0.075,0.132,0.195,0.129,0.302l0,0c0,0.079-0.017,0.158-0.044,0.247l0,0
						c-0.014,0.038-0.018,0.068-0.018,0.095l0,0c-0.007,0.104,0.096,0.223,0.333,0.323l0,0c0.226,0.094,0.532,0.141,0.755,0.14l0,0
						c0.109,0.001,0.201-0.012,0.235-0.024l0,0c0.006-0.001,0.007-0.001,0.008-0.001l0,0c0.078-0.052,0.165-0.069,0.247-0.069l0,0
						c0.404,0.006,0.883,0.4,0.891,1.078l0,0c0,0.131-0.019,0.268-0.058,0.417l0,0c-0.023,0.088-0.034,0.161-0.034,0.227l0,0
						c0.005,0.213,0.093,0.321,0.249,0.42l0,0c0.155,0.092,0.38,0.137,0.56,0.136l0,0c0.071,0,0.135-0.006,0.183-0.016l0,0
						c0.063-0.02,0.041-0.012,0.057-0.031l0,0c0.014-0.024,0.03-0.104,0.046-0.222l0,0c0.032-0.235,0.083-0.607,0.363-1.026l0,0
						c0.101-0.151,0.133-0.272,0.134-0.376l0,0c0.023-0.327-0.448-0.673-0.897-0.858l0,0v-0.001
						c-0.43-0.184-0.526-0.609-0.521-0.897l0,0c0-0.151,0.022-0.282,0.04-0.365l0,0c-0.011-0.007-0.028-0.013-0.061-0.023l0,0
						c-0.07-0.018-0.2-0.021-0.359-0.021l0,0c-0.32,0-0.771,0.003-1.244-0.235l0,0c-0.48-0.241-0.72-0.603-0.947-0.889l0,0
						c-0.232-0.291-0.435-0.515-0.891-0.633l0,0c-1.079-0.283-1.9-1.048-2.34-1.018l0,0c-0.401,0.001-0.662-0.269-0.811-0.53l0,0
						c-0.155-0.262-0.243-0.553-0.317-0.695l0,0c-0.021-0.042-0.034-0.092-0.034-0.14l0,0c0.018-0.222,0.151-0.303,0.27-0.407l0,0
						c0.126-0.098,0.28-0.195,0.429-0.297l0,0c0.309-0.194,0.543-0.441,0.519-0.537l0,0c0-0.032-0.008-0.067-0.049-0.124l0,0
						c-0.078-0.115-0.298-0.191-0.642-0.188l0,0c-0.708-0.003-1.766,0.289-2.551,0.292l0,0c-0.124,0-0.241-0.006-0.353-0.025l0,0
						c-1.171-0.214-1.706-1.594-2.059-1.835l0,0c-0.378-0.309-1.439-0.804-1.53-2.199l0,0c-0.042-0.651-0.021-1.089-0.042-1.377l0,0
						c-0.026-0.295-0.062-0.389-0.224-0.528l0,0c-0.321-0.267-0.363-0.673-0.367-0.965l0,0c0-0.113,0.008-0.213,0.018-0.289l0,0
						c-0.134-0.068-0.307-0.085-0.546-0.16l0,0c-0.297-0.096-0.634-0.32-0.941-0.864l0,0c-0.389-0.666-0.627-0.869-0.7-0.916l0,0
						c-0.087,0.013-0.173,0.019-0.253,0.019l0,0c-0.888-0.008-1.333-0.698-1.348-0.716l0,0l-0.024-0.037l-0.187-1.179l0.002-0.024
						c0-0.001,0.038-0.526,0.038-0.997l0,0c0.001-0.233-0.011-0.458-0.034-0.569l0,0c-0.005-0.024-0.009-0.05-0.009-0.079l0,0
						c-0.002-0.2,0.171-0.324,0.288-0.354l0,0c0.126-0.042,0.258-0.052,0.393-0.063l0,0c0.235-0.006,0.482-0.048,0.526-0.072l0,0
						c0-0.085-0.265-0.234-0.512-0.376l0,0c-0.076-0.056-0.19-0.131-0.199-0.313l0,0c-0.001-0.067,0.023-0.133,0.057-0.181l0,0
						c0.086-0.126,0.15-0.258,0.147-0.355l0,0c-0.002-0.083-0.026-0.17-0.193-0.307l0,0c-0.061-0.05-0.105-0.084-0.143-0.119l0,0
						c-0.03-0.041-0.09-0.052-0.108-0.207l0,0c0-0.105,0.076-0.176,0.108-0.193l0,0c0.037-0.024,0.059-0.031,0.081-0.04l0,0
						c0.043-0.016,0.083-0.029,0.135-0.053l0,0c0.1-0.049,0.241-0.138,0.406-0.356l0,0c0.188-0.25,0.378-0.384,0.592-0.387l0,0
						c0.22,0.02,0.35,0.132,0.427,0.239l0,0c0.187-0.082,0.496-0.188,0.854-0.189l0,0c0.381,0.021,0.981-0.474,1.099-0.743l0,0
						c0.04-0.094,0.155-0.199,0.288-0.195l0,0c0.292,0.039,0.368,0.237,0.492,0.39l0,0c0.032,0.049,0.061,0.096,0.087,0.139l0,0
						l0.405-0.201l0.824,0.203l0.044,0.059c0.001-0.001,0.058,0.076,0.142,0.152l0,0c0.081,0.08,0.192,0.134,0.212,0.127l0,0
						c0.002,0,0.003,0,0.005,0l0,0c0.006,0,0.017,0,0.062-0.078l0,0c0.008-0.018,0.01-0.027,0.011-0.038l0,0
						c0.022-0.046-0.18-0.263-0.459-0.392l0,0c-0.267-0.136-0.538-0.222-0.538-0.222l0,0L24.64,6.38l0.078-0.875
						c-0.075-0.004-0.159-0.014-0.242-0.037l0,0c-0.112-0.028-0.31-0.12-0.317-0.352l0,0c0.01-0.197,0.125-0.322,0.307-0.487l0,0
						c0.195-0.169,0.332-0.305,0.415-0.4l0,0c-0.096,0.006-0.218,0.014-0.332,0.014l0,0c-0.095,0-0.185-0.003-0.277-0.027l0,0
						c-0.075-0.015-0.24-0.084-0.248-0.28l0,0c0.039-0.263,0.192-0.324,0.466-0.521l0,0c0.354-0.23,0.402-0.395,0.403-0.489l0,0
						c0-0.018-0.001-0.035-0.005-0.053l0,0c-0.016,0.026-0.033,0.052-0.051,0.079l0,0c-0.137,0.193-0.331,0.438-0.663,0.449l0,0
						c-0.223,0-0.428-0.139-0.596-0.38l0,0C23.467,2.864,23.38,2.76,23.33,2.708l0,0c-0.017,0.022-0.037,0.05-0.06,0.083l0,0
						c-0.086,0.12-0.215,0.297-0.431,0.453l0,0c-0.153,0.108-0.331,0.149-0.501,0.148l0,0c-0.741-0.014-1.52-0.664-1.539-0.668l0,0
						l-0.016-0.012l-0.012-0.016c-0.001,0.001-0.118-0.137-0.285-0.273l0,0c-0.165-0.141-0.383-0.259-0.5-0.252l0,0
						c-0.385-0.022-0.501-0.34-0.644-0.557l0,0c-0.147-0.239-0.301-0.456-0.617-0.562l0,0c-0.085-0.028-0.146-0.038-0.177-0.038l0,0
						c-0.055,0.007-0.023-0.002-0.042,0.015l0,0c-0.015,0.02-0.039,0.093-0.059,0.189l0,0c-0.042,0.186-0.096,0.507-0.421,0.676l0,0
						c-0.119,0.059-0.236,0.091-0.351,0.09l0,0c-0.505-0.036-0.667-0.469-0.958-0.612l0,0c-0.003-0.002-0.006-0.004-0.007-0.005l0,0
						c-0.009,0.007-0.023,0.024-0.04,0.049l0,0C16.63,1.48,16.583,1.591,16.54,1.715l0,0c-0.097,0.254-0.152,0.538-0.334,0.738l0,0
						c-0.137,0.137-0.317,0.174-0.471,0.173l0,0c-0.308-0.005-0.618-0.119-0.785-0.113l0,0C14.728,2.494,14.22,2.82,14.105,3.08l0,0
						c-0.249,0.455-1.008,0.837-1.021,0.856l0,0l-0.052,0.029l-1.502-0.082L9.902,5.699L9.75,5.511
						C9.747,5.507,9.401,5.078,9.137,4.633l0,0C8.971,4.334,8.479,3.794,8.229,3.604l0,0C8.238,3.671,8.249,3.75,8.25,3.828l0,0
						C8.249,3.875,8.249,3.926,8.215,3.998l0,0C8.187,4.073,8.07,4.149,7.982,4.141l0,0c-0.042,0-0.073-0.008-0.104-0.017l0,0
						C7.718,4.068,7.395,3.958,7.237,3.962l0,0c-0.01,0-0.018,0-0.025,0.001l0,0C7.208,4.109,7.128,4.262,7.001,4.327l0,0
						c-0.13,0.07-0.254,0.072-0.38,0.074l0,0c-0.123,0-0.252-0.008-0.383-0.008l0,0C6.116,4.397,6.124,4.416,6.119,4.418l0,0
						C6.11,4.425,6.091,4.495,6.093,4.611l0,0c0,0.094,0.007,0.212,0.007,0.345l0,0C6.119,5.495,5.686,5.779,5.16,5.839l0,0
						C5.11,5.848,5.062,5.853,5.018,5.853l0,0C4.868,5.856,4.722,5.794,4.643,5.687l0,0c-0.067-0.089-0.087-0.183-0.091-0.26l0,0
						C4.49,5.448,4.434,5.487,4.387,5.529l0,0C4.312,5.596,4.275,5.658,4.275,5.658l0,0l-0.072,0.12L3.6,5.68L2.995,5.85L2.29,5.677
						C2.286,5.679,2.281,5.679,2.273,5.681l0,0C2.241,5.687,2.19,5.7,2.126,5.73l0,0c-0.129,0.06-0.314,0.183-0.509,0.452l0,0
						c-0.062,0.087-0.071,0.137-0.07,0.15l0,0c0.001,0.012-0.001,0.022,0.049,0.07l0,0c0.048,0.043,0.14,0.099,0.253,0.161l0,0
						c0.226,0.125,0.538,0.278,0.784,0.562l0,0c0.161,0.195,0.274,0.338,0.284,0.547l0,0C2.906,7.934,2.706,8.056,2.507,8.16l0,0
						c-0.213,0.109-0.502,0.224-0.885,0.4l0,0C1.299,8.714,1.27,8.826,1.27,8.884l0,0C1.261,8.957,1.354,9.102,1.48,9.21l0,0
						c0.121,0.109,0.243,0.18,0.243,0.18l0,0l0.08,0.045L1.907,9.94l0.291,1.075l-0.574,0.433L1.8,11.582l0.248,0.898
						c0.278,0.089,1.006,0.353,1.588,0.861l0,0c0.199,0.171,0.295,0.396,0.292,0.606l0,0c-0.017,0.426-0.304,0.77-0.513,0.97l0,0
						c0.144,0.061,0.319,0.092,0.511,0.091l0,0c0.645,0.021,1.402-0.396,1.428-0.629l0,0c0.139-0.418,0.696-0.911,1.237-1.391l0,0
						c0.539-0.464,1.054-0.851,1.056-0.852l0,0l0.091-0.07l0.108,0.044c0.001-0.002,0.839,0.334,1.656,0.417l0,0
						c0.463,0.04,0.736,0.232,0.895,0.434l0,0c0.16,0.203,0.232,0.357,0.385,0.446l0,0c0.248,0.15,0.348,0.296,0.474,0.385l0,0
						c0.127,0.093,0.32,0.188,0.821,0.271l0,0c0.5,0.076,0.662,0.542,0.644,0.923l0,0c-0.003,0.487-0.161,1.046-0.157,1.316l0,0
						c0,0.042,0.003,0.073,0.007,0.089l0,0v0.001c0.347,0.16,0.556,0.555,0.557,1.017l0,0c0,0.307-0.096,0.65-0.317,0.985l0,0
						c-0.076,0.111-0.103,0.188-0.108,0.22l0,0c0.022,0.007,0.069,0.015,0.121,0.013l0,0c0.131,0.001,0.278-0.033,0.278-0.033l0,0
						l0.712-0.177l-0.517,0.521c0,0-0.027,0.026-0.055,0.068l0,0c-0.026,0.037-0.043,0.082-0.045,0.097l0,0
						c0.003,0.003,0.009,0.009,0.025,0.017l0,0c0.051,0.028,0.192,0.065,0.442,0.064l0,0c0.402-0.007,0.673,0.267,0.779,0.561l0,0
						c0.116,0.296,0.134,0.632,0.135,0.917l0,0c0,0.03,0,0.06,0,0.088l0,0c0.117-0.062,0.251-0.093,0.391-0.091l0,0
						c0.448,0.004,0.958,0.274,1.489,0.803l0,0c0.38,0.368,0.454,0.673,0.446,0.879l0,0c0,0.043-0.002,0.077-0.002,0.104l0,0
						c0.015,0.124-0.049,0.168,0.536,0.525l0,0c0.568,0.319,0.753,0.543,0.758,0.812l0,0c-0.003,0.111-0.023,0.172-0.021,0.199l0,0
						c0.004,0.029-0.01,0.061,0.15,0.207l0,0c0.261,0.226,0.344,0.534,0.388,0.787l0,0c0.03,0.203,0.052,0.394,0.072,0.473l0,0
						c0.03-0.012,0.079-0.034,0.144-0.08l0,0c0.277-0.185,0.503-0.263,0.7-0.263l0,0c0.414,0.004,0.547,0.346,0.55,0.369l0,0
						l0.014,0.041l-0.066,0.771c0.147-0.05,0.337-0.126,0.52-0.236l0,0c0.094-0.058,0.201-0.083,0.3-0.083l0,0
						c0.358,0.02,0.647,0.264,0.821,0.444l0,0c0.126-0.118,0.328-0.235,0.629-0.235l0,0c0.056,0,0.115,0.005,0.179,0.014l0,0
						c0.255,0.044,0.395,0.241,0.5,0.444l0,0c0.105,0.209,0.183,0.462,0.252,0.717l0,0c0.114,0.461,0.249,0.977,0.314,1.068l0,0
						c0.01,0.005,0.051-0.023,0.166-0.154l0,0c0.108-0.123,0.312-0.29,0.619-0.284l0,0c0.081,0,0.171,0.015,0.25,0.083l0,0
						c0.08,0.067,0.106,0.17,0.104,0.241l0,0c-0.008,0.192-0.097,0.335-0.168,0.493l0,0c-0.06,0.116-0.108,0.237-0.124,0.299l0,0
						c0.015,0.002,0.029,0.003,0.043,0.003l0,0c0.162,0.003,0.364-0.101,0.516-0.219l0,0c0.153-0.115,0.251-0.229,0.251-0.229l0,0
						l0.125-0.146l0.154,0.115c0.65,0.488,0.896,0.906,0.898,1.291l0,0c-0.003,0.372-0.241,0.629-0.362,0.758l0,0
						c0.217,0.177,0.249,0.289,0.702,0.3l0,0c0.247-0.006,0.452,0.12,0.545,0.282l0,0c0.082,0.137,0.105,0.277,0.111,0.4l0,0
						c0.189-0.057,0.456-0.123,0.768-0.166l0,0c0.019-0.003,0.04-0.005,0.063-0.005l0,0c0.217-0.002,0.361,0.176,0.406,0.325l0,0
						c0.056,0.157,0.075,0.336,0.087,0.532l0,0c0.022,0.388,0.007,0.846,0.054,1.159l0,0c0.026,0.213,0.101,0.315,0.112,0.313l0,0
						c0.332,0.146,0.485,0.462,0.464,0.816l0,0c0,0.312-0.058,0.717-0.095,1.345l0,0c-0.004,0.059-0.007,0.112-0.007,0.164l0,0
						c0.002,0.462,0.137,0.654,0.211,0.727l0,0l-0.208,0.344c-0.023-0.008-0.051-0.016-0.086-0.024l0,0
						c-0.064-0.016-0.134-0.024-0.208-0.024l0,0c-0.332-0.006-0.738,0.178-0.867,0.329l0,0c-0.04,0.045-0.048,0.073-0.048,0.08l0,0
						c0.001,0.001,0.007,0.01,0.025,0.024l0,0c0.155,0.126,0.208,0.315,0.207,0.493l0,0c-0.021,0.649-0.594,1.552-1.426,1.663l0,0
						c-0.207,0.043-0.185,0.062-0.206,0.188l0,0c-0.021,0.222,0.276,0.656,0.398,0.689l0,0c0.003,0.002,0.004,0.002,0.005,0.003l0,0
						c0.063-0.015,0.124-0.018,0.187-0.018l0,0C27.532,40.613,27.779,40.659,27.982,40.658L27.982,40.658z M24.84,39.822
						L24.84,39.822L24.84,39.822L24.84,39.822z M26.486,39.196l0.169-0.116L26.486,39.196L26.486,39.196z M3.639,37.029
						c-0.26-0.003-0.473-0.121-0.656-0.217l0,0c-0.178-0.102-0.34-0.175-0.383-0.168l0,0c-0.007,0.001-0.009,0.001-0.013,0.002l0,0
						C2.546,36.66,2.5,36.669,2.453,36.669l0,0c-0.312-0.02-0.417-0.273-0.486-0.437l0,0c-0.008-0.021-0.016-0.04-0.022-0.061l0,0
						c-0.013,0.003-0.026,0.005-0.04,0.005l0,0c-0.23-0.01-0.364-0.189-0.468-0.469l0,0c-0.027-0.073-0.042-0.145-0.042-0.216l0,0
						c0.001-0.281,0.226-0.438,0.405-0.508l0,0c0.189-0.079,0.397-0.118,0.547-0.158l0,0c0.07-0.018,0.122-0.036,0.146-0.046l0,0
						c0.003-0.018,0.006-0.042,0.006-0.073l0,0c0.001-0.136-0.047-0.36-0.048-0.587l0,0c0-0.118,0.013-0.243,0.074-0.366l0,0
						c0.088-0.189,0.293-0.261,0.42-0.253l0,0c0.009,0,0.019,0,0.028,0.001l0,0c0.022-0.317,0.145-0.799,0.413-1.135l0,0
						C3.239,32.35,3.059,32.35,2.89,32.282l0,0c-0.096-0.03-0.181-0.165-0.171-0.258l0,0c0.034-0.288,0.236-0.437,0.418-0.643l0,0
						c0.149-0.149,0.295-0.277,0.35-0.323l0,0c0.022-0.033,0.073-0.109,0.127-0.21l0,0c0.069-0.128,0.14-0.297,0.157-0.421l0,0
						c-0.021-0.004-0.05-0.007-0.085-0.007l0,0c-0.188-0.002-0.467,0.08-0.467,0.081l0,0l-0.511,0.157L2.981,30.2
						c0.01-0.016,0.132-0.216,0.477-0.562l0,0c0.135-0.133,0.187-0.269,0.182-0.314l0,0c-0.002-0.027-0.002-0.02-0.004-0.023l0,0
						c-0.003-0.002-0.032-0.021-0.107-0.021l0,0c-0.21,0.002-0.396-0.075-0.512-0.209l0,0c-0.118-0.133-0.162-0.299-0.162-0.458l0,0
						c0-0.075,0.01-0.15,0.029-0.222l0,0c0.094-0.281,0.331-0.354,0.438-0.398l0,0c-0.069-0.091-0.111-0.195-0.111-0.302l0,0
						c0.033-0.289,0.225-0.402,0.346-0.452l0,0c0.001-0.004,0.003-0.01,0.005-0.016l0,0c0.02-0.063,0.045-0.162,0.062-0.299l0,0
						c0.028-0.208,0.2-0.32,0.33-0.359l0,0c0.136-0.045,0.271-0.051,0.378-0.052l0,0c0.109,0,0.188,0.01,0.194,0.011l0,0
						l0.602,0.072l-0.522,0.309c-0.297,0.182-0.307,0.282-0.31,0.336l0,0c-0.01,0.084,0.068,0.134,0.098,0.353l0,0
						c0.001,0.015,0.001,0.027-0.001,0.041l0,0c0.01,0.003,0.019,0.005,0.029,0.008l0,0c0.155,0.041,0.358,0.071,0.489,0.071l0,0
						c0.131-0.018,0.06,0.005,0.114-0.052l0,0c0.021-0.058,0.179-0.261,0.408-0.243l0,0c0.023,0.009,0.112-0.049,0.181-0.155l0,0
						c0.069-0.1,0.109-0.202,0.109-0.202l0,0l0.021-0.056l0.048-0.036c0.013-0.006,0.46-0.354,0.942-0.443l0,0
						c0.053-0.017,0.03-0.008,0.042-0.021l0,0c0.009-0.016,0.02-0.076,0.023-0.159l0,0c0.011-0.149-0.006-0.45,0.281-0.618l0,0
						c0.084-0.047,0.17-0.076,0.258-0.076l0,0c0.209,0,0.33,0.162,0.366,0.26l0,0c0.025,0.06,0.038,0.112,0.044,0.149l0,0
						c0.019,0.014,0.083,0.051,0.253,0.051l0,0c0.285,0.008,0.427,0.239,0.495,0.438l0,0c0.074,0.208,0.101,0.448,0.101,0.665l0,0
						c-0.002,0.193-0.017,0.355-0.074,0.495l0,0c-0.008,0.019-0.009,0.026-0.009,0.03l0,0c-0.002,0.003,0.003,0.03,0.071,0.101l0,0
						c0.064,0.066,0.17,0.156,0.276,0.278l0,0l-0.156,0.135l-0.156,0.134c-0.142-0.193-0.412-0.284-0.447-0.647l0,0
						c0-0.066,0.016-0.136,0.044-0.198l0,0c0.014-0.024,0.042-0.171,0.039-0.327l0,0c0-0.18-0.026-0.387-0.077-0.527l0,0
						c-0.055-0.153-0.105-0.165-0.108-0.164l0,0c-0.472,0.018-0.65-0.27-0.65-0.35l0,0l-0.004-0.015l0-0.011
						c-0.002,0-0.002-0.018-0.01-0.045l0,0c-0.003-0.016-0.008-0.027-0.013-0.036l0,0c-0.01,0.004-0.024,0.009-0.044,0.021l0,0
						c-0.037,0.021-0.049,0.041-0.063,0.158l0,0c-0.014,0.11,0.007,0.262-0.07,0.437l0,0c-0.051,0.119-0.186,0.226-0.34,0.248l0,0
						c-0.165,0.027-0.365,0.119-0.516,0.206l0,0c-0.093,0.053-0.166,0.101-0.209,0.131l0,0c-0.024,0.055-0.067,0.139-0.128,0.228
						l0,0c-0.098,0.139-0.249,0.326-0.521,0.335l0,0c-0.014,0-0.023,0.002-0.027,0.002l0,0c-0.004,0.005-0.013,0.017-0.034,0.05l0,0
						c-0.04,0.092-0.221,0.261-0.461,0.243l0,0c-0.28-0.004-0.63-0.076-0.84-0.167l0,0c-0.06-0.05-0.162-0.022-0.208-0.258l0,0
						c0.011-0.091,0.046-0.145,0.084-0.179l0,0c-0.008-0.022-0.019-0.047-0.027-0.075l0,0c-0.01,0.024-0.017,0.038-0.019,0.043l0,0
						L3.86,27.568l-0.083,0.025c0,0.003-0.051,0.016-0.099,0.048l0,0c-0.054,0.034-0.057,0.048-0.056,0.05l0,0
						c0.001,0-0.002,0.016,0.034,0.063l0,0c0.06,0.077,0.106,0.162,0.107,0.27l0,0c0.002,0.132-0.088,0.232-0.151,0.273l0,0
						c-0.067,0.047-0.128,0.071-0.182,0.096l0,0c-0.115,0.051-0.15,0.091-0.148,0.099l0,0c-0.01,0.042-0.016,0.083-0.016,0.121l0,0
						c0.021,0.17,0.037,0.239,0.263,0.255l0,0c0.139,0,0.27,0.033,0.372,0.118l0,0c0.103,0.085,0.153,0.219,0.151,0.338l0,0
						c-0.004,0.219-0.12,0.418-0.302,0.605l0,0c-0.028,0.026-0.055,0.055-0.08,0.081l0,0c0.005,0,0.01,0,0.016,0l0,0
						c0.097,0,0.197,0.009,0.301,0.059l0,0c0.105,0.047,0.205,0.187,0.198,0.324l0,0c0,0.015-0.001,0.024-0.001,0.045l0,0
						c-0.056,0.456-0.372,0.864-0.377,0.88l0,0l-0.014,0.02l-0.02,0.017c0,0-0.153,0.128-0.313,0.286l0,0
						c-0.1,0.092-0.202,0.21-0.267,0.294l0,0c0.136,0.016,0.333,0.024,0.486,0.071l0,0c0.071,0.021,0.215,0.104,0.219,0.277l0,0
						c-0.008,0.142-0.075,0.21-0.148,0.291l0,0c-0.214,0.196-0.378,0.783-0.37,0.996l0,0c0,0.021,0.001,0.036,0.002,0.043l0,0l0,0
						l0,0.001c0,0,0,0,0-0.001l0,0c0.012,0.026,0.025,0.056,0.026,0.11l0,0c0.006,0.057-0.042,0.158-0.107,0.19l0,0
						c-0.06,0.033-0.098,0.03-0.123,0.032l0,0c-0.121-0.009-0.174-0.036-0.234-0.034l0,0c-0.051,0.009-0.029-0.006-0.052,0.026l0,0
						c-0.019,0.035-0.031,0.098-0.031,0.182l0,0c-0.002,0.165,0.046,0.381,0.049,0.587l0,0c0,0.085-0.008,0.177-0.054,0.274l0,0
						C2.7,35.21,2.524,35.188,2.337,35.252l0,0c-0.048,0.012-0.096,0.023-0.143,0.036l0,0l0.084,0.534c0,0,0.016,0.101,0.054,0.214
						l0,0c0.033,0.11,0.104,0.215,0.122,0.222l0,0c0.001,0,0.002,0,0.007-0.001l0,0c0.046-0.016,0.094-0.022,0.139-0.022l0,0
						C2.832,36.242,3,36.36,3.179,36.45l0,0c0.174,0.097,0.344,0.171,0.46,0.169l0,0c0.057-0.001,0.102-0.012,0.156-0.044l0,0
						c0.395-0.235,0.544-0.801,0.664-1.098l0,0c0.132-0.252,0.522-0.652,1.052-0.682l0,0c0.315-0.007,0.618,0.212,0.778,0.642l0,0
						c0.031-0.043,0.071-0.105,0.115-0.194l0,0l0.006-0.013l0.008-0.013c0,0,0.082-0.116,0.164-0.269l0,0
						c0.083-0.146,0.156-0.341,0.151-0.413l0,0c0-0.009,0-0.016,0-0.017l0,0c-0.021-0.046-0.031-0.097-0.031-0.146l0,0
						c0.022-0.271,0.196-0.372,0.308-0.511l0,0c0.125-0.135,0.218-0.264,0.229-0.407l0,0c0.019-0.247,0.045-0.523,0.101-0.759l0,0
						c0.062-0.214,0.107-0.447,0.376-0.538l0,0c0,0,0-0.001,0.001-0.001l0,0c0.005-0.005,0.017-0.017,0.03-0.032l0,0
						c0.03-0.038,0.068-0.101,0.102-0.174l0,0c0.069-0.145,0.121-0.334,0.119-0.449l0,0c0-0.036-0.005-0.062-0.009-0.075l0,0
						c-0.206-0.072-0.44-0.19-0.456-0.48l0,0c0.005-0.193,0.116-0.343,0.285-0.496l0,0c0.362-0.299,0.965-0.73,0.926-0.992l0,0
						c0-0.044-0.01-0.087-0.037-0.14l0,0C8.569,29.12,8.53,28.945,8.531,28.8l0,0c0.003-0.192,0.054-0.319,0.048-0.354l0,0
						c-0.003-0.021,0.004-0.016-0.028-0.058l0,0l0.156-0.134l0.156-0.134c0.086,0.096,0.129,0.222,0.126,0.325l0,0
						c-0.006,0.168-0.051,0.252-0.048,0.354l0,0c0.001,0.077,0.016,0.172,0.098,0.324l0,0c0.057,0.108,0.086,0.223,0.086,0.335l0,0
						c-0.039,0.659-0.783,1.016-1.062,1.299l0,0c-0.119,0.104-0.146,0.168-0.149,0.186l0,0c0.002,0.003,0.007,0.008,0.017,0.015l0,0
						c0.026,0.023,0.087,0.057,0.171,0.085l0,0c0.226,0.077,0.281,0.303,0.277,0.46l0,0c-0.001,0.211-0.069,0.433-0.157,0.625l0,0
						c-0.103,0.181-0.158,0.347-0.388,0.42l0,0c-0.003,0.005-0.011,0.014-0.02,0.029l0,0c-0.023,0.041-0.052,0.119-0.074,0.216l0,0
						c-0.046,0.191-0.073,0.455-0.091,0.695l0,0C7.593,34,7.136,34.268,7.116,34.371l0,0c0.021,0.056,0.028,0.111,0.028,0.165l0,0
						c-0.015,0.377-0.304,0.786-0.373,0.893l0,0h0c-0.163,0.311-0.293,0.471-0.521,0.486l0,0c-0.228-0.016-0.284-0.175-0.296-0.188
						l0,0l-0.008-0.016l-0.005-0.018c-0.144-0.433-0.287-0.48-0.43-0.488l0,0c-0.247-0.028-0.669,0.368-0.674,0.435l0,0
						c-0.104,0.221-0.249,0.923-0.827,1.284l0,0c-0.118,0.073-0.247,0.104-0.367,0.104l0,0C3.642,37.029,3.641,37.029,3.639,37.029
						L3.639,37.029z M1.867,35.41c-0.061,0.045-0.059,0.053-0.062,0.082l0,0c0,0.015,0.002,0.036,0.016,0.069l0,0
						c0.031,0.088,0.062,0.144,0.084,0.177l0,0l0.261-0.442C2.041,35.33,1.928,35.369,1.867,35.41L1.867,35.41z"/>
				</g>
			</g>
		</g>
	</g>
</g>
<path fill="#FFFFFF" d="M61.254,35.794c-0.195-0.398-0.502-0.701-0.912-0.912c-0.41-0.211-1.14-0.314-2.175-0.314v-0.721h9.986
	v0.721h-0.479c-0.991,0-1.669,0.33-2.035,0.992c-0.255,0.466-0.378,1.394-0.378,2.776v7.894c-1.459,0.789-2.9,1.367-4.322,1.734
	c-1.418,0.365-2.995,0.553-4.736,0.553c-4.983,0-8.768-1.602-11.353-4.796c-1.939-2.397-2.912-5.162-2.912-8.297
	c0-2.267,0.545-4.445,1.637-6.525c1.29-2.474,3.067-4.373,5.326-5.707c1.888-1.104,4.119-1.653,6.691-1.653
	c0.94,0,1.792,0.076,2.562,0.227c0.769,0.151,1.852,0.49,3.262,1.008c0.708,0.267,1.187,0.399,1.426,0.399s0.447-0.108,0.618-0.331
	c0.17-0.223,0.278-0.657,0.314-1.303h0.701l0.669,8.142h-0.669c-0.669-2.031-1.538-3.557-2.604-4.584
	c-1.534-1.486-3.506-2.227-5.912-2.227c-3.286,0-5.784,1.298-7.497,3.9c-1.434,2.198-2.151,4.807-2.151,7.839
	c0,2.461,0.478,4.704,1.43,6.735c0.948,2.027,2.195,3.518,3.732,4.462c1.545,0.943,3.126,1.418,4.748,1.418
	c0.952,0,1.873-0.123,2.761-0.363c0.884-0.239,1.74-0.594,2.565-1.063v-7.46C61.549,37.041,61.45,36.196,61.254,35.794
	L61.254,35.794z M86.223,47.923v-0.7c1.026-0.053,1.72-0.223,2.083-0.515c0.358-0.294,0.542-0.648,0.542-1.067
	c0-0.558-0.255-1.437-0.761-2.646l-1.562-3.704h-9.986l-1.748,4.067c-0.43,1.004-0.645,1.748-0.645,2.247
	c0,0.39,0.183,0.736,0.562,1.035c0.37,0.3,1.179,0.494,2.421,0.582v0.7h-8.123v-0.7c1.08-0.191,1.777-0.438,2.092-0.746
	c0.648-0.607,1.365-1.845,2.155-3.708l9.07-21.23h0.666l8.979,21.457c0.721,1.726,1.377,2.849,1.967,3.358
	c0.59,0.514,1.41,0.806,2.461,0.869v0.7H86.223L86.223,47.923z M81.618,27.454l-4.49,10.424h8.868L81.618,27.454L81.618,27.454z
	 M116.275,47.923l-8.73-12.062c-0.649,0.028-1.176,0.041-1.582,0.041c-0.162,0-0.338-0.005-0.529-0.013
	c-0.191-0.004-0.386-0.012-0.589-0.028v7.497c0,1.625,0.175,2.633,0.529,3.023c0.481,0.562,1.206,0.841,2.171,0.841h1.008v0.7
	H97.502v-0.7h0.969c1.092,0,1.868-0.355,2.338-1.068c0.267-0.39,0.398-1.326,0.398-2.796V26.693c0-1.626-0.175-2.634-0.529-3.028
	c-0.494-0.554-1.231-0.833-2.207-0.833h-0.969v-0.706h9.394c2.74,0,4.76,0.199,6.062,0.598c1.298,0.398,2.401,1.135,3.307,2.207
	c0.907,1.076,1.362,2.35,1.362,3.835c0,1.585-0.519,2.961-1.555,4.127c-1.032,1.167-2.633,1.992-4.8,2.474l5.326,7.4
	c1.214,1.701,2.262,2.828,3.139,3.386c0.876,0.562,2.016,0.916,3.425,1.068v0.7H116.275L116.275,47.923z M111.473,33.086
	c1.251-1.067,1.872-2.422,1.872-4.071c0-1.613-0.502-2.923-1.515-3.931c-1.003-1.008-2.338-1.51-4.002-1.51
	c-0.732,0-1.729,0.12-2.983,0.358v10.731c0.238,0,0.449,0.004,0.625,0.008c0.18,0.008,0.326,0.013,0.438,0.013
	C108.369,34.684,110.225,34.149,111.473,33.086L111.473,33.086z M142.258,47.923l-8.73-12.062c-0.649,0.028-1.171,0.041-1.581,0.041
	c-0.163,0-0.343-0.005-0.53-0.013c-0.19-0.004-0.386-0.012-0.589-0.028v7.497c0,1.625,0.175,2.633,0.533,3.023
	c0.479,0.562,1.203,0.841,2.167,0.841h1.008v0.7h-11.05v-0.7h0.969c1.092,0,1.872-0.355,2.338-1.068
	c0.271-0.39,0.402-1.326,0.402-2.796V26.693c0-1.626-0.18-2.634-0.534-3.028c-0.494-0.554-1.231-0.833-2.206-0.833h-0.969v-0.706
	h9.393c2.74,0,4.761,0.199,6.059,0.598c1.303,0.398,2.406,1.135,3.314,2.207c0.903,1.076,1.357,2.35,1.357,3.835
	c0,1.585-0.517,2.961-1.554,4.127c-1.031,1.167-2.632,1.992-4.799,2.474l5.325,7.4c1.215,1.701,2.263,2.828,3.14,3.386
	c0.873,0.562,2.015,0.916,3.421,1.068v0.7H142.258L142.258,47.923z M137.455,33.086c1.246-1.067,1.872-2.422,1.872-4.071
	c0-1.613-0.501-2.923-1.51-3.931c-1.012-1.008-2.342-1.51-4.003-1.51c-0.741,0-1.733,0.12-2.987,0.358v10.731
	c0.239,0,0.45,0.004,0.625,0.008c0.18,0.008,0.326,0.013,0.438,0.013C134.353,34.684,136.205,34.149,137.455,33.086L137.455,33.086z
	"/>
<path fill="#FFFFFF" d="M44.958,12.902l-0.043,0.243L44.66,14.5l-0.043,0.196c-0.028,0.19-0.203,0.39-0.522,0.597
	c-1.705,1.079-3.589,1.621-5.64,1.621c-2.378,0-4.298-0.701-5.751-2.103c-1.454-1.407-2.183-3.25-2.183-5.541
	c0-2.294,0.752-4.198,2.258-5.711c1.51-1.518,3.402-2.279,5.676-2.279c1.558,0,2.991,0.351,4.298,1.048l0.446,0.231l0.175,0.08
	l0.187,0.063c0.041,0,0.096-0.027,0.168-0.087c0.163-0.116,0.275-0.175,0.334-0.175c0.119,0,0.195,0.139,0.231,0.418l0.354,2.646
	l0.032,0.279l-0.032,0.107C44.612,5.956,44.557,5.992,44.485,6c-0.091,0.007-0.223-0.147-0.403-0.463
	c-1.382-2.406-3.254-3.604-5.62-3.604c-1.888,0-3.374,0.573-4.461,1.725c-1.087,1.156-1.629,2.729-1.629,4.724
	c0,2.298,0.602,4.174,1.812,5.629c1.207,1.457,2.764,2.187,4.665,2.187c1.111,0,2.198-0.294,3.27-0.884
	c1.075-0.59,1.816-1.307,2.231-2.147c0.191-0.39,0.338-0.59,0.442-0.597c0.12-0.005,0.179,0.063,0.179,0.215L44.958,12.902
	L44.958,12.902z M54.924,15.547c-0.94,0.909-2.126,1.367-3.561,1.367c-1.402,0-2.558-0.442-3.461-1.327
	c-0.908-0.884-1.359-2.015-1.359-3.397c0-1.338,0.482-2.474,1.442-3.409c0.96-0.933,2.124-1.402,3.49-1.402
	c1.33,0,2.473,0.462,3.425,1.394c0.952,0.924,1.43,2.035,1.43,3.318C56.331,13.484,55.861,14.639,54.924,15.547L54.924,15.547z
	 M53.762,9.187C53.096,8.273,52.24,7.82,51.193,7.82c-0.92,0-1.665,0.339-2.228,1.02c-0.565,0.676-0.848,1.569-0.848,2.672
	c0,1.402,0.351,2.578,1.056,3.521c0.705,0.944,1.581,1.417,2.628,1.417c0.917,0,1.637-0.334,2.163-1.003s0.793-1.577,0.793-2.724
	C54.758,11.277,54.423,10.098,53.762,9.187L53.762,9.187z M68.977,16.714c-0.083,0-0.226-0.012-0.434-0.036
	c-0.243-0.036-0.689-0.052-1.346-0.052l-1.096,0.033H65.68l-0.319,0.02l-0.155-0.032c-0.052-0.028-0.075-0.087-0.075-0.167
	c0-0.116,0.067-0.188,0.199-0.215l0.33-0.091c0.299-0.072,0.442-0.335,0.442-0.793v-3.796c0-1.02-0.236-1.809-0.706-2.362
	c-0.478-0.554-1.151-0.829-2.027-0.829c-0.614,0-1.159,0.18-1.637,0.538c-0.478,0.358-0.713,0.772-0.713,1.235v4.207l0.008,0.33
	l0.012,0.554c0.04,0.621,0.55,0.959,1.542,1.016c0.243,0.023,0.366,0.103,0.366,0.239c0,0.135-0.087,0.203-0.254,0.203
	c-0.128,0-0.315-0.02-0.566-0.063c-0.143-0.016-0.49-0.024-1.043-0.024c-1.171,0-1.876,0.016-2.103,0.052
	c-0.23,0.023-0.378,0.036-0.446,0.036c-0.139,0-0.208-0.059-0.194-0.179c0.004-0.092,0.076-0.167,0.207-0.215
	c0.378-0.136,0.629-0.295,0.761-0.486c0.127-0.191,0.194-0.502,0.194-0.924V9.931c0-0.521-0.067-0.876-0.19-1.06
	c-0.127-0.187-0.362-0.282-0.709-0.282L58.127,8.6C58.06,8.6,58,8.584,57.948,8.557c-0.068-0.032-0.1-0.084-0.1-0.159
	c0-0.107,0.096-0.179,0.287-0.215c0.498-0.087,0.972-0.239,1.43-0.454l0.59-0.283c0.227-0.112,0.37-0.184,0.43-0.216
	c0.104-0.055,0.191-0.083,0.267-0.083c0.131,0,0.191,0.104,0.175,0.319c-0.004,0.119-0.008,0.258-0.008,0.418V9.13
	c0.988-1.171,2.015-1.752,3.08-1.752c1.183,0,2.115,0.482,2.804,1.446c0.474,0.661,0.709,1.668,0.709,3.022v2.637l-0.012,0.335
	l0.037,0.526c0.08,0.486,0.39,0.772,0.928,0.852l0.466,0.067c0.199,0.028,0.302,0.099,0.31,0.215
	C69.349,16.635,69.225,16.714,68.977,16.714L68.977,16.714z M75.699,9.879c-0.093,0.008-0.175-0.088-0.252-0.287
	c-0.406-1.115-1.167-1.677-2.283-1.677c-0.442,0-0.809,0.127-1.092,0.378c-0.287,0.25-0.426,0.565-0.426,0.952
	c0,0.402,0.151,0.733,0.458,0.984c0.307,0.25,0.929,0.558,1.857,0.916c0.924,0.358,1.566,0.741,1.924,1.139
	c0.358,0.402,0.538,0.936,0.538,1.613c0,0.828-0.306,1.538-0.924,2.126c-0.618,0.594-1.354,0.889-2.213,0.889
	c-0.612,0-1.278-0.175-1.994-0.518c-0.172-0.08-0.279-0.124-0.323-0.124l-0.291-0.032c-0.167-0.016-0.259-0.103-0.275-0.275
	l-0.012-0.469L70.36,14.09l0.023-0.331c0.033-0.196,0.112-0.299,0.248-0.307c0.135-0.008,0.227,0.1,0.274,0.331
	c0.152,0.809,0.455,1.441,0.9,1.896c0.446,0.454,0.984,0.685,1.613,0.685c0.543,0,0.981-0.159,1.324-0.478
	c0.343-0.313,0.518-0.72,0.518-1.214c0-0.753-0.418-1.314-1.251-1.681l-0.976-0.435c-0.89-0.378-1.514-0.772-1.89-1.179
	c-0.366-0.406-0.549-0.908-0.549-1.49c0-0.705,0.283-1.303,0.853-1.785c0.565-0.482,1.27-0.725,2.107-0.725
	c0.583,0,1.085,0.076,1.506,0.227l0.486,0.164c0.2,0.072,0.3,0.183,0.3,0.334v0.179c0,0.104,0.008,0.208,0.023,0.307l0.044,0.43
	c0.024,0.155,0.032,0.295,0.032,0.417C75.946,9.724,75.866,9.872,75.699,9.879L75.699,9.879z M86.529,15.547
	c-0.937,0.909-2.124,1.367-3.557,1.367c-1.403,0-2.558-0.442-3.462-1.327c-0.904-0.884-1.358-2.015-1.358-3.397
	c0-1.338,0.482-2.474,1.442-3.409c0.955-0.933,2.123-1.402,3.488-1.402c1.331,0,2.475,0.462,3.426,1.394
	c0.953,0.924,1.431,2.035,1.431,3.318C87.939,13.484,87.47,14.639,86.529,15.547L86.529,15.547z M85.369,9.187
	c-0.664-0.913-1.521-1.367-2.568-1.367c-0.92,0-1.665,0.339-2.227,1.02c-0.566,0.676-0.849,1.569-0.849,2.672
	c0,1.402,0.351,2.578,1.056,3.521c0.705,0.944,1.582,1.417,2.629,1.417c0.912,0,1.637-0.334,2.163-1.003
	c0.525-0.669,0.793-1.577,0.793-2.724C86.366,11.277,86.035,10.098,85.369,9.187L85.369,9.187z M96.129,9.051
	c-0.243,0.294-0.415,0.446-0.519,0.454c-0.052,0-0.215-0.088-0.49-0.263c-0.312-0.223-0.617-0.331-0.903-0.331
	c-0.451,0-0.824,0.159-1.127,0.482c-0.304,0.326-0.45,0.729-0.45,1.214v3.928c0,0.618,0.079,1.051,0.247,1.314
	c0.167,0.259,0.457,0.41,0.868,0.446l0.577,0.044c0.235,0.016,0.355,0.088,0.355,0.219c0,0.147-0.104,0.219-0.312,0.219
	c-0.051,0-0.227-0.016-0.522-0.052c-0.139-0.016-0.346-0.024-0.62-0.024l-0.8-0.012h-0.492c-0.576,0-0.987,0.02-1.232,0.056
	c-0.192,0.032-0.324,0.048-0.399,0.056c-0.199,0.008-0.299-0.063-0.299-0.216c0-0.123,0.115-0.203,0.342-0.247
	c0.319-0.071,0.523-0.211,0.617-0.41c0.093-0.195,0.136-0.617,0.136-1.267V9.935c0-0.844-0.406-1.27-1.218-1.27l-0.375,0.012
	c-0.172,0-0.255-0.072-0.255-0.227c0-0.088,0.055-0.155,0.163-0.203c0.068-0.012,0.151-0.024,0.243-0.032
	c0.696-0.063,1.518-0.387,2.462-0.972c0.095-0.048,0.183-0.08,0.255-0.088c0.171-0.008,0.259,0.12,0.259,0.379l-0.016,0.208v1.645
	c0.859-1.339,1.648-2.008,2.373-2.008c0.228,0,0.53,0.136,0.904,0.406c0.371,0.275,0.566,0.494,0.582,0.662
	C96.491,8.557,96.371,8.76,96.129,9.051L96.129,9.051z M100.826,15.659c0.306,0.315,0.735,0.47,1.298,0.47
	c0.45,0,0.832-0.08,1.139-0.244l0.578-0.274l0.067-0.024c0.087,0,0.131,0.044,0.131,0.124c0,0.239-0.291,0.501-0.872,0.781
	c-0.585,0.279-1.127,0.422-1.634,0.422c-1.696,0-2.549-0.88-2.549-2.641V8.712h-0.983c-0.191,0-0.291-0.056-0.291-0.167
	c0-0.104,0.1-0.235,0.291-0.398c0.864-0.729,1.525-1.461,1.983-2.191c0.199-0.323,0.339-0.486,0.423-0.486
	c0.104,0,0.155,0.095,0.155,0.287l-0.049,1.908h2.363c0.326,0,0.577-0.06,0.753-0.175c0.11-0.084,0.19-0.127,0.242-0.136
	c0.084-0.011,0.119,0.028,0.112,0.124c0,0.037-0.031,0.127-0.1,0.279L103.63,8.39c-0.081,0.215-0.244,0.322-0.487,0.322h-2.629
	v5.545C100.514,14.974,100.618,15.444,100.826,15.659L100.826,15.659z M109.317,16.746c-0.127,0-0.367-0.015-0.726-0.048
	c-0.198-0.02-0.457-0.023-0.776-0.023l-0.713-0.016l-0.81,0.043c-0.15,0.008-0.261,0.02-0.341,0.033
	c-0.196,0.023-0.332,0.036-0.402,0.036c-0.2,0-0.299-0.068-0.299-0.204c0-0.116,0.062-0.195,0.198-0.239l0.211-0.064
	c0.234-0.08,0.398-0.224,0.49-0.418c0.091-0.199,0.14-0.518,0.14-0.96v-4.799c0-0.609-0.06-1.004-0.175-1.187
	c-0.119-0.188-0.375-0.275-0.766-0.275c-0.283,0-0.417-0.06-0.409-0.175c0.008-0.099,0.193-0.211,0.565-0.323
	c0.418-0.139,0.944-0.374,1.581-0.705l0.59-0.275c0.096,0.008,0.143,0.096,0.143,0.263v7.429c0,0.522,0.056,0.873,0.172,1.047
	c0.115,0.18,0.358,0.291,0.725,0.343l0.511,0.055c0.266,0.037,0.394,0.132,0.39,0.279C109.607,16.687,109.509,16.746,109.317,16.746
	L109.317,16.746z M107.051,5.127c-0.151,0-0.347-0.147-0.594-0.442c-0.242-0.294-0.366-0.526-0.366-0.701
	c0-0.167,0.135-0.406,0.406-0.705c0.271-0.303,0.481-0.455,0.63-0.455c0.179,0,0.357,0.147,0.545,0.442l0.267,0.418
	c0.076,0.104,0.112,0.2,0.112,0.279c0.008,0.172-0.116,0.407-0.379,0.709C107.413,4.976,107.207,5.127,107.051,5.127L107.051,5.127z
	 M120.653,16.515l-0.701,0.044c-0.478,0.024-0.788,0.052-0.928,0.087c-0.18,0.044-0.313,0.068-0.41,0.068
	c-0.234,0-0.354-0.347-0.354-1.032l-0.012-0.426c-0.855,1.106-1.9,1.657-3.123,1.657c-1.036,0-1.844-0.318-2.426-0.956
	c-0.578-0.633-0.869-1.521-0.869-2.661l0.013-0.729V8.923c0-0.379-0.08-0.638-0.231-0.785c-0.154-0.147-0.445-0.231-0.863-0.255
	c-0.188-0.016-0.275-0.088-0.268-0.227c0.004-0.127,0.235-0.203,0.686-0.224l0.836-0.036c0.184-0.012,0.462-0.063,0.828-0.155
	c0.104-0.024,0.188-0.04,0.243-0.04c0.2,0,0.299,0.171,0.299,0.513v0.168l-0.044,4.927v0.354l0.176,1.334
	c0.155,0.47,0.446,0.857,0.868,1.167c0.418,0.311,0.88,0.462,1.379,0.462c0.648,0,1.23-0.188,1.735-0.569
	c0.511-0.382,0.762-0.817,0.762-1.303v-5.27c0-0.418-0.071-0.706-0.215-0.861c-0.143-0.155-0.414-0.23-0.805-0.23
	c-0.236,0-0.354-0.068-0.354-0.207c0-0.163,0.135-0.248,0.398-0.255l0.365-0.023l0.777-0.032c0.252-0.016,0.538-0.072,0.864-0.175
	c0.104-0.032,0.19-0.048,0.267-0.056c0.155-0.008,0.231,0.124,0.231,0.395v7.157c0,0.566,0.06,0.937,0.183,1.12
	c0.124,0.179,0.371,0.267,0.749,0.267h0.176l0.155-0.012c0.163,0,0.248,0.06,0.255,0.171
	C121.303,16.404,121.088,16.496,120.653,16.515L120.653,16.515z M139.072,16.714c-0.084,0-0.195-0.012-0.343-0.036
	c-0.234-0.032-0.605-0.052-1.104-0.052c-0.979,0-1.594,0.016-1.836,0.052c-0.163,0.023-0.271,0.036-0.33,0.036
	c-0.192,0-0.295-0.072-0.3-0.215c-0.008-0.083,0.052-0.151,0.188-0.203c0.323-0.123,0.538-0.247,0.637-0.366
	c0.101-0.116,0.152-0.307,0.152-0.573l0.008-0.371v-3.608c0-0.992-0.211-1.765-0.633-2.31c-0.427-0.554-1.017-0.829-1.776-0.829
	c-0.503,0-0.98,0.155-1.438,0.466c-0.458,0.307-0.686,0.633-0.686,0.976c0,0.076,0.013,0.167,0.036,0.275
	c0.044,0.267,0.068,0.521,0.068,0.765v3.982c0,0.562,0.092,0.953,0.278,1.175c0.191,0.219,0.545,0.351,1.071,0.395
	c0.243,0.023,0.367,0.103,0.367,0.243c0,0.131-0.108,0.199-0.323,0.199c-0.075,0-0.192-0.008-0.354-0.024
	c-0.411-0.044-0.758-0.064-1.047-0.064c-1.017,0-1.654,0.02-1.921,0.052c-0.143,0.023-0.255,0.036-0.347,0.036
	c-0.174,0-0.267-0.063-0.267-0.192c0-0.083,0.067-0.151,0.199-0.194c0.395-0.139,0.626-0.274,0.701-0.41s0.111-0.498,0.111-1.076
	v-4.083c0-0.772-0.203-1.378-0.605-1.824c-0.402-0.442-0.956-0.665-1.661-0.665c-0.648,0-1.175,0.167-1.578,0.498
	c-0.401,0.335-0.601,0.769-0.601,1.311v4.732c0,0.478,0.104,0.825,0.313,1.047c0.212,0.219,0.571,0.358,1.073,0.415
	c0.227,0.023,0.342,0.107,0.342,0.25c0,0.137-0.091,0.2-0.267,0.192c-0.104-0.008-0.283-0.028-0.533-0.055
	c-0.156-0.021-0.462-0.033-0.925-0.033h-0.745l-0.753,0.012c-0.103,0-0.235,0.008-0.39,0.023c-0.191,0.024-0.327,0.044-0.41,0.052
	c-0.184,0.008-0.275-0.055-0.275-0.192c0-0.11,0.08-0.194,0.243-0.25c0.339-0.099,0.558-0.235,0.654-0.395
	c0.094-0.163,0.143-0.478,0.143-0.947V9.999c0-0.529-0.057-0.893-0.172-1.087c-0.116-0.2-0.327-0.299-0.638-0.299h-0.49
	c-0.07,0-0.135-0.02-0.187-0.056c-0.045-0.024-0.067-0.06-0.067-0.116c0-0.099,0.088-0.174,0.271-0.227
	c0.761-0.199,1.47-0.478,2.123-0.849c0.286-0.163,0.462-0.243,0.521-0.243c0.112,0,0.168,0.135,0.168,0.41v1.334
	c0.825-0.996,1.801-1.489,2.924-1.489c0.652,0,1.183,0.124,1.597,0.375c0.41,0.25,0.801,0.677,1.164,1.278
	c0.844-1.103,1.854-1.652,3.035-1.652c1.003,0,1.784,0.318,2.342,0.952c0.562,0.638,0.84,1.526,0.84,2.665v3.549
	c0,0.566,0.111,0.984,0.335,1.258c0.219,0.268,0.586,0.431,1.096,0.482c0.176,0.016,0.267,0.096,0.267,0.239
	C139.339,16.651,139.252,16.714,139.072,16.714L139.072,16.714z"/>
</svg>
